<?xml version="1.0" encoding="utf-8"?>
<!-- Generator: Adobe Illustrator 16.0.0, SVG Export Plug-In . SVG Version: 6.00 Build 0)  -->
<!DOCTYPE svg PUBLIC "-//W3C//DTD SVG 1.1//EN" "http://www.w3.org/Graphics/SVG/1.1/DTD/svg11.dtd">
<svg version="1.1" id="Layer_1" xmlns="http://www.w3.org/2000/svg" xmlns:xlink="http://www.w3.org/1999/xlink" x="0px" y="0px"
	 width="1683.767px" height="1190.551px" viewBox="0 0 1683.767 1190.551" enable-background="new 0 0 1683.767 1190.551"
	 xml:space="preserve">
<text transform="matrix(1 0 0 1 123.8799 1066.23)" fill="#001A71" font-family="'Archia-Regular'" font-size="24.3711"> Eyewear for Little Big Kids</text>
<g>
	<g>
		<text transform="matrix(1 0 0 1 621.3428 1066.9927)" fill="#001A71" font-family="'Archia-Regular'" font-size="21.0973"> Eyewear for Little Big Kids</text>
	</g>
	<g>
		<path fill="#001A71" d="M640.128,970.98c2.961,1.972,8.057,3.78,14.479,3.78c16.615,0,26.482-10.198,26.482-28.135v-82.094
			c0-3.617-1.973-5.595-5.594-5.595h-23.523v12.34h11.68v77.656c0,7.565-4.111,11.844-9.869,11.844
			c-3.949,0-7.572-0.985-10.535-2.63L640.128,970.98z M670.472,849.394c6.58,0,12.174-5.427,12.174-12.501
			c0-6.58-5.594-12.175-12.174-12.175c-7.076,0-12.672,5.595-12.672,12.175C657.8,843.967,663.396,849.394,670.472,849.394z"/>
		<path fill="#001A71" d="M758.354,857.293c-16.781,0-26.16,8.883-30.932,20.235h-0.49c0.326-1.974,0.49-5.098,0.49-7.899v-5.098
			c0-3.617-1.969-5.595-5.588-5.595h-22.377v12.997h12.174v57.916h-12.174v12.336h43.033V929.85h-13.422v-24.844
			c0-18.595,9.049-32.414,23.033-32.414c12.832,0,19.25,9.215,19.25,23.035v46.559h29.449V929.85H788.79v-37.184
			C788.79,871.111,777.112,857.293,758.354,857.293z"/>
		<path fill="#001A71" d="M871.325,876.377l2.471-17.93c-1.973-0.662-4.111-1.154-6.748-1.154c-15.955,0-24.51,10.201-27.803,22.541
			h-0.494c0.162-2.472,0.494-5.76,0.494-8.558v-6.745c0-3.617-2.135-5.595-5.598-5.595h-22.529v13.494h12.168v57.419h-12.168v12.336
			h42.938V929.85h-13.326v-23.201c0-17.438,7.07-31.751,22.047-31.751C866.062,874.898,868.532,875.555,871.325,876.377z"/>
		<g>
			<path fill="#001A71" d="M712.108,962c-9.287,0-15.156,3.968-15.156,10.951c0,15.954,23.885,10.32,23.885,19.445
				c0,3.252-3.168,4.842-8.252,4.842c-3.652,0-6.506-0.796-8.73-2.301v-5.159h-7.223v8.491c3.811,3.807,9.207,5.396,15.873,5.396
				c9.525,0,16.588-3.813,16.588-11.269c0-15.24-23.967-10.477-23.967-19.445c0-3.018,2.855-4.443,7.301-4.443
				c3.49,0,6.189,0.951,7.938,1.982v5.003h7.221v-9.525C724.173,963.508,719.569,962,712.108,962z"/>
			<path fill="#001A71" d="M756.708,996.68c-3.893,0-7.225-1.111-9.604-3.809v-9.284c0-9.366,4.439-14.524,10.871-14.524
				c6.672,0,10.557,5.396,10.557,13.651C768.532,991.362,764.323,996.68,756.708,996.68z M760.595,962.079
				c-7.779-0.078-12.139,3.492-14.361,8.73h-0.24c0.24-1.189,0.156-2.301,0.24-3.572l0.074-1.746
				c0.08-1.746-1.029-2.697-2.695-2.697h-10.793v6.43h5.793v45.316h-5.715v5.874h20.32v-5.874h-6.434v-14.924
				c2.619,2.625,6.748,4.132,10.637,4.132c11.904,0,19.602-8.254,19.602-21.033C777.022,970.335,770.44,962.079,760.595,962.079z"/>
			<path fill="#001A71" d="M790.831,979.143c1.184-6.27,5.234-10.479,10.871-10.479c6.742,0,9.523,5.398,9.842,10.479H790.831z
				 M801.386,962.079c-11.512,0-19.287,8.891-19.287,20.793c0,12.148,8.252,20.876,20.631,20.876c7.938,0,14.525-3.571,16.67-9.286
				l-6.189-3.254c-1.666,3.254-5.559,5.633-10.48,5.633c-7.301,0-11.506-5.159-12.139-12.062h28.887
				C819.952,970.887,814.241,962,801.386,962.079z"/>
			<path fill="#001A71" d="M824.396,982.872c0,12.697,7.775,20.876,20.395,20.876c8.648,0,14.76-3.812,16.904-9.765l-6.75-2.858
				c-1.664,3.255-5.551,5.716-10.154,5.716c-7.859,0-11.824-5.789-11.824-13.969c0-7.774,3.809-13.968,11.668-13.968
				c3.725,0,6.742,1.432,8.172,3.177V977h7.615v-8.969c-3.492-3.891-8.803-6.031-15.715-6.031
				C831.612,962,824.396,971.76,824.396,982.872z"/>
			<path fill="#001A71" d="M882.003,962c-9.283,0-15.154,3.968-15.154,10.951c0,15.954,23.887,10.32,23.887,19.445
				c0,3.252-3.172,4.842-8.25,4.842c-3.654,0-6.508-0.796-8.73-2.301v-5.159h-7.225v8.491c3.811,3.807,9.205,5.396,15.869,5.396
				c9.523,0,16.592-3.813,16.592-11.269c0-15.24-23.969-10.477-23.969-19.445c0-3.018,2.854-4.443,7.301-4.443
				c3.49,0,6.189,0.951,7.938,1.982v5.003h7.223v-9.525C894.069,963.508,889.468,962,882.003,962z"/>
		</g>
		<path fill="#001A71" d="M886.464,943.831c6.584,0,12.18-5.426,12.18-12.502c0-6.58-5.596-12.173-12.18-12.173
			c-7.074,0-12.668,5.593-12.668,12.173C873.796,938.405,879.39,943.831,886.464,943.831z"/>
	</g>
</g>
<text transform="matrix(1 0 0 1 90.5498 99.2349)" font-family="'AkzidenzGroteskBQ-Reg'" font-size="24.4274">TYPEFACE</text>
<text transform="matrix(1 0 0 1 120.5693 226.6436)"><tspan x="0" y="0" font-family="'AkzidenzGroteskBQ-Reg'" font-size="24.4274">Main Typeface </tspan><tspan x="0" y="33.6" font-family="'AkzidenzGroteskBQ-Reg'" font-size="28">Weekly - Semi Bold</tspan></text>
<text transform="matrix(1 0 0 1 824.3955 226.6436)"><tspan x="0" y="0" font-family="'AkzidenzGroteskBQ-Reg'" font-size="24.4274">Secondary Typeface </tspan><tspan x="0" y="33.6" font-family="'AkzidenzGroteskBQ-Reg'" font-size="28">Archia - Regular</tspan></text>
<text transform="matrix(1 0 0 1 120.5684 354.4585)"><tspan x="0" y="0" font-family="'Weekly-SemiBold'" font-size="62.4213">abcdefghijklmn</tspan><tspan x="0" y="74.905" font-family="'Weekly-SemiBold'" font-size="62.4213">opqrstuvwxyz</tspan><tspan x="0" y="224.717" font-family="'Weekly-SemiBold'" font-size="62.4213">1234567890</tspan></text>
<text transform="matrix(1 0 0 1 824.3955 354.4585)"><tspan x="0" y="0" font-family="'Archia-Regular'" font-size="62.4213">abcdefghijklmn</tspan><tspan x="0" y="74.905" font-family="'Archia-Regular'" font-size="62.4213">opqrstuvwxyz</tspan><tspan x="0" y="224.717" font-family="'Archia-Regular'" font-size="62.4213">1234567890</tspan></text>
<g>
	<g>
		<text transform="matrix(1 0 0 1 1137.1279 1066.9927)" fill="#293887" font-family="'Archia-Regular'" font-size="21.0973"> Eyewear for Little Big Kids</text>
	</g>
	<g>
		<g>
			<path fill="#001A71" d="M1079.772,1013.635c1.652,1.1,4.494,2.108,8.076,2.108c9.268,0,14.771-5.688,14.771-15.692v-45.789
				c0-2.018-1.102-3.121-3.121-3.121h-13.121v6.883h6.516v43.314c0,4.22-2.295,6.605-5.506,6.605c-2.201,0-4.223-0.549-5.875-1.467
				L1079.772,1013.635z M1096.696,945.819c3.67,0,6.791-3.027,6.791-6.973c0-3.67-3.121-6.791-6.791-6.791
				c-3.947,0-7.066,3.121-7.066,6.791C1089.63,942.792,1092.749,945.819,1096.696,945.819z"/>
			<path fill="#001A71" d="M1145.716,950.225c-9.361,0-14.592,4.954-17.254,11.286h-0.273c0.184-1.101,0.273-2.844,0.273-4.405
				v-2.844c0-2.018-1.1-3.121-3.117-3.121h-12.48v7.25h6.789v32.303h-6.789v6.881h24.004v-6.881h-7.488v-13.857
				c0-10.371,5.049-18.078,12.848-18.078c7.158,0,10.736,5.139,10.736,12.848v25.969h16.426v-6.881h-6.697v-20.74
				C1162.692,957.932,1156.179,950.225,1145.716,950.225z"/>
			<path fill="#001A71" d="M1208.728,960.87l1.377-10.001c-1.1-0.37-2.293-0.644-3.764-0.644c-8.898,0-13.672,5.689-15.508,12.572
				h-0.275c0.09-1.379,0.275-3.213,0.275-4.773v-3.762c0-2.018-1.191-3.121-3.121-3.121h-12.566v7.526h6.787v32.026h-6.787v6.881
				h23.949v-6.881h-7.434v-12.94c0-9.727,3.943-17.71,12.297-17.71C1205.79,960.043,1207.169,960.411,1208.728,960.87z"/>
			<path fill="#001A71" d="M1217.169,998.492c3.674,0,6.795-3.026,6.795-6.974c0-3.669-3.121-6.789-6.795-6.789
				c-3.945,0-7.064,3.12-7.064,6.789C1210.104,995.465,1213.224,998.492,1217.169,998.492z"/>
		</g>
		<g>
			<path fill="#001A71" d="M1270.372,950.21c-10.959,0-17.887,4.683-17.887,12.925c0,18.828,28.189,12.18,28.189,22.949
				c0,3.838-3.742,5.712-9.74,5.712c-4.309,0-7.678-0.938-10.303-2.716v-6.088h-8.521v10.021c4.494,4.49,10.863,6.366,18.73,6.366
				c11.24,0,19.576-4.499,19.576-13.296c0-17.987-28.283-12.365-28.283-22.949c0-3.562,3.367-5.244,8.615-5.244
				c4.119,0,7.303,1.123,9.365,2.339v5.905h8.523v-11.242C1284.612,951.989,1279.179,950.21,1270.372,950.21z"/>
			<path fill="#001A71" d="M1323.007,991.139c-4.594,0-8.525-1.312-11.334-4.496v-10.956c0-11.055,5.24-17.142,12.832-17.142
				c7.869,0,12.457,6.368,12.457,16.109C1336.962,984.862,1331.993,991.139,1323.007,991.139z M1327.593,950.302
				c-9.18-0.092-14.326,4.122-16.947,10.304h-0.281c0.281-1.403,0.182-2.715,0.281-4.216l0.09-2.059
				c0.09-2.062-1.219-3.185-3.186-3.185h-12.734v7.586h6.836v53.48h-6.744v6.933h23.979v-6.933h-7.592v-17.611
				c3.092,3.096,7.963,4.875,12.555,4.875c14.047,0,23.133-9.74,23.133-24.822C1346.981,960.046,1339.212,950.302,1327.593,950.302z
				"/>
			<path fill="#001A71" d="M1363.274,970.442c1.4-7.399,6.18-12.367,12.834-12.367c7.953,0,11.236,6.37,11.611,12.367H1363.274z
				 M1375.729,950.302c-13.582,0-22.76,10.493-22.76,24.539c0,14.336,9.74,24.636,24.35,24.636c9.367,0,17.141-4.213,19.672-10.958
				l-7.303-3.841c-1.969,3.841-6.562,6.648-12.369,6.648c-8.615,0-13.58-6.088-14.328-14.235h34.092
				C1397.644,960.699,1390.903,950.21,1375.729,950.302z"/>
			<path fill="#001A71" d="M1402.886,974.841c0,14.985,9.178,24.636,24.068,24.636c10.207,0,17.418-4.496,19.947-11.523
				l-7.963-3.372c-1.965,3.84-6.551,6.745-11.984,6.745c-9.273,0-13.953-6.832-13.953-16.485c0-9.174,4.494-16.483,13.771-16.483
				c4.395,0,7.955,1.688,9.641,3.748v5.809h8.988v-10.586c-4.121-4.59-10.389-7.118-18.547-7.118
				C1411.405,950.21,1402.886,961.729,1402.886,974.841z"/>
			<path fill="#001A71" d="M1470.874,950.21c-10.959,0-17.885,4.683-17.885,12.925c0,18.828,28.188,12.18,28.188,22.949
				c0,3.838-3.742,5.712-9.736,5.712c-4.311,0-7.678-0.938-10.303-2.716v-6.088h-8.527v10.021c4.498,4.49,10.867,6.366,18.73,6.366
				c11.238,0,19.58-4.499,19.58-13.296c0-17.987-28.287-12.365-28.287-22.949c0-3.562,3.367-5.244,8.615-5.244
				c4.119,0,7.305,1.123,9.369,2.339v5.905h8.521v-11.242C1485.112,951.989,1479.681,950.21,1470.874,950.21z"/>
		</g>
	</g>
</g>
<g>
	<path fill="#FFC700" d="M434.347,861.828c0,76.907-62.342,139.251-139.246,139.251c-76.908,0-139.252-62.344-139.252-139.251
		c0-76.905,62.344-139.249,139.252-139.249C372.005,722.579,434.347,784.922,434.347,861.828z"/>
	<g>
		<path fill="#FFFFFF" d="M196.937,897.737c2.248,1.496,6.113,2.868,10.982,2.868c12.604,0,20.092-7.735,20.092-21.342V816.99
			c0-2.743-1.498-4.243-4.244-4.243h-17.846v9.359h8.861v58.908c0,5.738-3.119,8.984-7.488,8.984c-2.996,0-5.742-0.748-7.988-1.996
			L196.937,897.737z M219.954,805.507c4.992,0,9.236-4.116,9.236-9.483c0-4.991-4.244-9.234-9.236-9.234
			c-5.367,0-9.609,4.243-9.609,9.234C210.345,801.391,214.587,805.507,219.954,805.507z"/>
		<path fill="#FFFFFF" d="M286.62,811.5c-12.73,0-19.846,6.738-23.465,15.35h-0.371c0.248-1.497,0.371-3.867,0.371-5.992v-3.867
			c0-2.743-1.494-4.243-4.238-4.243h-16.975v9.859h9.234v43.932h-9.234v9.357h32.643v-9.357h-10.18v-18.846
			c0-14.104,6.865-24.588,17.471-24.588c9.734,0,14.604,6.99,14.604,17.474v35.317h22.338v-9.357h-9.111v-28.206
			C309.706,821.981,300.847,811.5,286.62,811.5z"/>
		<path fill="#FFFFFF" d="M372.313,825.975l1.875-13.601c-1.494-0.502-3.117-0.875-5.119-0.875c-12.102,0-18.594,7.737-21.09,17.099
			h-0.373c0.121-1.875,0.373-4.369,0.373-6.492v-5.116c0-2.743-1.619-4.243-4.244-4.243h-17.09v10.235h9.229v43.556h-9.229v9.357
			h32.568v-9.357h-10.109v-17.6c0-13.227,5.365-24.084,16.723-24.084C368.323,824.854,370.196,825.352,372.313,825.975z"/>
		<g>
			<path fill="#FFFFFF" d="M251.54,890.925c-7.045,0-11.5,3.011-11.5,8.308c0,12.102,18.119,7.829,18.119,14.75
				c0,2.467-2.404,3.673-6.26,3.673c-2.77,0-4.934-0.604-6.621-1.745v-3.913H239.8v6.44c2.889,2.887,6.982,4.093,12.041,4.093
				c7.223,0,12.582-2.892,12.582-8.548c0-11.561-18.18-7.947-18.18-14.75c0-2.289,2.164-3.37,5.539-3.37
				c2.645,0,4.693,0.722,6.018,1.503v3.795h5.479v-7.225C260.692,892.069,257.198,890.925,251.54,890.925z"/>
			<path fill="#FFFFFF" d="M285.37,917.233c-2.951,0-5.479-0.844-7.283-2.89v-7.042c0-7.105,3.367-11.018,8.244-11.018
				c5.061,0,8.01,4.092,8.01,10.354C294.341,913.198,291.147,917.233,285.37,917.233z M288.319,890.985
				c-5.9-0.06-9.211,2.649-10.895,6.623h-0.182c0.182-0.902,0.119-1.745,0.182-2.711l0.057-1.322
				c0.061-1.326-0.781-2.047-2.047-2.047h-8.186v4.877h4.395v34.375h-4.336v4.455h15.414v-4.455h-4.879v-11.32
				c1.986,1.99,5.119,3.134,8.07,3.134c9.027,0,14.869-6.261,14.869-15.955C300.782,897.249,295.786,890.985,288.319,890.985z"/>
			<path fill="#FFFFFF" d="M311.253,903.929c0.9-4.755,3.973-7.948,8.248-7.948c5.115,0,7.223,4.094,7.465,7.948H311.253z
				 M319.261,890.985c-8.732,0-14.631,6.744-14.631,15.773c0,9.215,6.262,15.835,15.65,15.835c6.023,0,11.018-2.709,12.645-7.044
				l-4.695-2.469c-1.264,2.469-4.215,4.273-7.949,4.273c-5.539,0-8.729-3.914-9.209-9.15h21.912
				C333.345,897.667,329.013,890.925,319.261,890.985z"/>
			<path fill="#FFFFFF" d="M336.716,906.758c0,9.631,5.898,15.835,15.471,15.835c6.559,0,11.193-2.891,12.822-7.407l-5.119-2.168
				c-1.264,2.469-4.213,4.336-7.703,4.336c-5.963,0-8.973-4.392-8.973-10.596c0-5.898,2.891-10.596,8.854-10.596
				c2.826,0,5.115,1.086,6.199,2.409v3.733h5.775V895.5c-2.648-2.951-6.678-4.575-11.92-4.575
				C342.188,890.925,336.716,898.33,336.716,906.758z"/>
			<path fill="#FFFFFF" d="M380.415,890.925c-7.043,0-11.496,3.011-11.496,8.308c0,12.102,18.119,7.829,18.119,14.75
				c0,2.467-2.408,3.673-6.258,3.673c-2.771,0-4.938-0.604-6.625-1.745v-3.913h-5.479v6.44c2.891,2.887,6.984,4.093,12.039,4.093
				c7.225,0,12.586-2.892,12.586-8.548c0-11.561-18.184-7.947-18.184-14.75c0-2.289,2.166-3.37,5.537-3.37
				c2.648,0,4.695,0.722,6.021,1.503v3.795h5.479v-7.225C389.567,892.069,386.075,890.925,380.415,890.925z"/>
		</g>
		<path fill="#FFFFFF" d="M383.796,877.143c4.996,0,9.24-4.115,9.24-9.483c0-4.991-4.244-9.234-9.24-9.234
			c-5.363,0-9.607,4.243-9.607,9.234C374.188,873.028,378.433,877.143,383.796,877.143z"/>
	</g>
</g>
</svg>
