<?xml version="1.0" encoding="utf-8"?>
<!-- Generator: Adobe Illustrator 16.0.0, SVG Export Plug-In . SVG Version: 6.00 Build 0)  -->
<!DOCTYPE svg PUBLIC "-//W3C//DTD SVG 1.1//EN" "http://www.w3.org/Graphics/SVG/1.1/DTD/svg11.dtd">
<svg version="1.1" id="Layer_1" xmlns="http://www.w3.org/2000/svg" xmlns:xlink="http://www.w3.org/1999/xlink" x="0px" y="0px"
	 width="1683.767px" height="1190.551px" viewBox="0 0 1683.767 1190.551" enable-background="new 0 0 1683.767 1190.551"
	 xml:space="preserve">
<g>
	<text transform="matrix(1 0 0 1 111.1406 99.2349)" font-family="'AkzidenzGroteskBQ-Reg'" font-size="24.4274">COLOUR PALETTE</text>
</g>
<text transform="matrix(1 0 0 1 162.0742 538.0342)"><tspan x="0" y="0" font-family="'AkzidenzGroteskBQ-Reg'" font-size="24.4274">canary yellow</tspan><tspan x="0" y="29.313" font-family="'AkzidenzGroteskBQ-Reg'" font-size="24.4274">-</tspan><tspan x="0" y="58.625" font-family="'AkzidenzGroteskBQ-Reg'" font-size="24.4274">Pantone : 7548 C</tspan><tspan x="0" y="87.939" font-family="'AkzidenzGroteskBQ-Reg'" font-size="24.4274">CMYK : 0-23-100-0 </tspan><tspan x="0" y="117.251" font-family="'AkzidenzGroteskBQ-Reg'" font-size="24.4274">RGB : 255-198-0 </tspan><tspan x="0" y="146.564" font-family="'AkzidenzGroteskBQ-Reg'" font-size="24.4274">Hex : #ffc600</tspan></text>
<text transform="matrix(1 0 0 1 532.4854 538.0342)"><tspan x="0" y="0" font-family="'AkzidenzGroteskBQ-Reg'" font-size="24.4274">white</tspan><tspan x="0" y="29.313" font-family="'AkzidenzGroteskBQ-Reg'" font-size="24.4274">-</tspan><tspan x="0" y="58.625" font-family="'AkzidenzGroteskBQ-Reg'" font-size="24.4274">Pantone : -</tspan><tspan x="0" y="87.939" font-family="'AkzidenzGroteskBQ-Reg'" font-size="24.4274">CMYK : 0-0-0-0 </tspan><tspan x="0" y="117.251" font-family="'AkzidenzGroteskBQ-Reg'" font-size="24.4274">RGB : 255-255-255 </tspan><tspan x="0" y="146.564" font-family="'AkzidenzGroteskBQ-Reg'" font-size="24.4274">Hex : #ffffff</tspan></text>
<text transform="matrix(1 0 0 1 902.8955 538.0342)"><tspan x="0" y="0" font-family="'AkzidenzGroteskBQ-Reg'" font-size="24.4274">navy blue</tspan><tspan x="0" y="29.313" font-family="'AkzidenzGroteskBQ-Reg'" font-size="24.4274">-</tspan><tspan x="0" y="58.625" font-family="'AkzidenzGroteskBQ-Reg'" font-size="24.4274">Pantone : 642 C</tspan><tspan x="0" y="87.939" font-family="'AkzidenzGroteskBQ-Reg'" font-size="24.4274">CMYK : 100-94-24-22 </tspan><tspan x="0" y="117.251" font-family="'AkzidenzGroteskBQ-Reg'" font-size="24.4274">RGB : 0-26-113 </tspan><tspan x="0" y="146.564" font-family="'AkzidenzGroteskBQ-Reg'" font-size="24.4274">Hex : #001a71</tspan></text>
<rect x="162.074" y="195.432" fill="#FFC700" width="307.248" height="307.249"/>
<rect x="532.484" y="195.432" fill="#FFFFFF" stroke="#000000" stroke-width="0.5" stroke-miterlimit="10" width="307.246" height="307.249"/>
<rect x="902.893" y="195.432" fill="#001A71" width="307.248" height="307.249"/>
</svg>
