<?xml version="1.0" encoding="utf-8"?>
<!-- Generator: Adobe Illustrator 16.0.0, SVG Export Plug-In . SVG Version: 6.00 Build 0)  -->
<!DOCTYPE svg PUBLIC "-//W3C//DTD SVG 1.1//EN" "http://www.w3.org/Graphics/SVG/1.1/DTD/svg11.dtd">
<svg version="1.1" id="Layer_1" xmlns="http://www.w3.org/2000/svg" xmlns:xlink="http://www.w3.org/1999/xlink" x="0px" y="0px"
	 width="1683.767px" height="1190.551px" viewBox="0 0 1683.767 1190.551" enable-background="new 0 0 1683.767 1190.551"
	 xml:space="preserve">
<g>
	<g>
		<g>
			<path fill="#FFC700" d="M388.567,831.483c-14.181,0-23.147,6.061-23.147,16.723c0,24.359,36.475,15.756,36.475,29.688
				c0,4.971-4.845,7.396-12.601,7.396c-5.576,0-9.937-1.213-13.331-3.514v-7.878h-11.024v12.97
				c5.814,5.814,14.056,8.241,24.235,8.241c14.539,0,25.324-5.82,25.324-17.215c0-23.264-36.596-15.992-36.596-29.688
				c0-4.604,4.362-6.785,11.148-6.785c5.329,0,9.453,1.455,12.118,3.032v7.634h11.027v-14.543
				C406.983,833.787,399.957,831.483,388.567,831.483z"/>
			<path fill="#FFC700" d="M456.661,884.44c-5.939,0-11.03-1.695-14.663-5.816v-14.18c0-14.3,6.785-22.171,16.602-22.171
				c10.179,0,16.113,8.237,16.113,20.838C474.713,876.318,468.29,884.44,456.661,884.44z M462.595,831.603
				c-11.873-0.119-18.539,5.336-21.93,13.335h-0.367c0.367-1.817,0.244-3.517,0.367-5.455l0.12-2.667
				c0.12-2.662-1.576-4.119-4.121-4.119h-16.477v9.816h8.843v69.196h-8.725v8.969h31.022v-8.969h-9.818v-22.786
				c4.002,4.003,10.306,6.303,16.239,6.303c18.179,0,29.932-12.601,29.932-32.114C487.681,844.208,477.623,831.603,462.595,831.603z
				"/>
			<path fill="#FFC700" d="M508.756,857.66c1.815-9.574,7.998-15.995,16.597-15.995c10.305,0,14.547,8.238,15.033,15.995H508.756z
				 M524.872,831.603c-17.57,0-29.445,13.575-29.445,31.752c0,18.546,12.6,31.871,31.505,31.871c12.117,0,22.177-5.45,25.445-14.175
				l-9.447-4.97c-2.544,4.97-8.483,8.604-15.998,8.604c-11.145,0-17.567-7.881-18.541-18.423h44.107
				C553.229,845.06,544.501,831.483,524.872,831.603z"/>
			<path fill="#FFC700" d="M560.006,863.354c0,19.391,11.875,31.871,31.145,31.871c13.207,0,22.537-5.815,25.808-14.906
				l-10.299-4.363c-2.547,4.97-8.481,8.729-15.509,8.729c-12,0-18.06-8.849-18.06-21.331c0-11.875,5.816-21.328,17.815-21.328
				c5.696,0,10.3,2.182,12.481,4.848v7.515h11.631v-13.694c-5.326-5.935-13.45-9.211-23.992-9.211
				C571.035,831.483,560.006,846.391,560.006,863.354z"/>
			<path fill="#FFC700" d="M647.972,831.483c-14.178,0-23.146,6.061-23.146,16.723c0,24.359,36.474,15.756,36.474,29.688
				c0,4.971-4.847,7.396-12.601,7.396c-5.574,0-9.936-1.213-13.329-3.514v-7.878h-11.024v12.97
				c5.813,5.814,14.057,8.241,24.23,8.241c14.545,0,25.329-5.82,25.329-17.215c0-23.264-36.596-15.992-36.596-29.688
				c0-4.604,4.361-6.785,11.147-6.785c5.333,0,9.453,1.455,12.116,3.032v7.634h11.03v-14.543
				C666.391,833.787,659.365,831.483,647.972,831.483z"/>
		</g>
	</g>
	<g>
		<path fill="#FFC700" d="M141.957,915.223c2.183,1.454,5.937,2.788,10.661,2.788c12.239,0,19.512-7.513,19.512-20.724v-60.468
			c0-2.664-1.456-4.121-4.121-4.121H150.68v9.088h8.605v57.201c0,5.569-3.033,8.722-7.271,8.722c-2.908,0-5.578-0.726-7.76-1.937
			L141.957,915.223z M165.345,825.674c4.846,0,8.966-3.999,8.966-9.215c0-4.845-4.12-8.966-8.966-8.966
			c-5.216,0-9.337,4.121-9.337,8.966C156.008,821.675,160.129,825.674,165.345,825.674z"/>
		<path fill="#FFC700" d="M225.633,831.487c-12.361,0-19.269,6.545-22.783,14.906h-0.359c0.238-1.455,0.359-3.759,0.359-5.821
			v-3.753c0-2.664-1.451-4.121-4.117-4.121H182.25v9.575h8.967v42.656h-8.967v9.085h31.021v-9.085h-9.209v-18.302
			c0-13.693,6.665-23.872,16.965-23.872c9.453,0,14.18,6.787,14.18,16.97v34.289h21.689v-9.085h-8.848v-27.389
			C248.049,841.665,239.445,831.487,225.633,831.487z"/>
		<path fill="#FFC700" d="M308.657,845.542l1.818-13.204c-1.453-0.487-3.031-0.851-4.971-0.851
			c-11.753,0-18.053,7.515-20.479,16.603h-0.361c0.117-1.819,0.361-4.24,0.361-6.304v-4.967c0-2.664-1.573-4.121-4.119-4.121
			h-16.599v9.937h8.963v42.295h-8.963v9.085h31.625v-9.085h-9.816v-17.089c0-12.845,5.213-23.387,16.239-23.387
			C304.779,844.454,306.597,844.938,308.657,845.542z"/>
		<path fill="#FFC700" d="M319.804,895.229c4.85,0,8.971-3.998,8.971-9.213c0-4.845-4.121-8.964-8.971-8.964
			c-5.209,0-9.328,4.119-9.328,8.964C310.476,891.231,314.595,895.229,319.804,895.229z"/>
	</g>
</g>
<g>
	<g>
		<g>
			<path fill="#001A71" d="M388.567,986.522c-14.181,0-23.147,6.061-23.147,16.723c0,24.359,36.475,15.756,36.475,29.688
				c0,4.971-4.845,7.396-12.601,7.396c-5.576,0-9.937-1.213-13.331-3.514v-7.878h-11.024v12.97
				c5.814,5.814,14.056,8.241,24.235,8.241c14.539,0,25.324-5.82,25.324-17.215c0-23.264-36.596-15.992-36.596-29.688
				c0-4.604,4.362-6.785,11.148-6.785c5.329,0,9.453,1.455,12.118,3.032v7.634h11.027v-14.543
				C406.983,988.826,399.957,986.522,388.567,986.522z"/>
			<path fill="#001A71" d="M456.661,1039.479c-5.939,0-11.03-1.695-14.663-5.816v-14.18c0-14.3,6.785-22.171,16.602-22.171
				c10.179,0,16.113,8.237,16.113,20.838C474.713,1031.357,468.29,1039.479,456.661,1039.479z M462.595,986.642
				c-11.873-0.119-18.539,5.336-21.93,13.335h-0.367c0.367-1.817,0.244-3.517,0.367-5.455l0.12-2.667
				c0.12-2.662-1.576-4.119-4.121-4.119h-16.477v9.816h8.843v69.196h-8.725v8.969h31.022v-8.969h-9.818v-22.786
				c4.002,4.003,10.306,6.303,16.239,6.303c18.179,0,29.932-12.601,29.932-32.114C487.681,999.247,477.623,986.642,462.595,986.642z
				"/>
			<path fill="#001A71" d="M508.756,1012.699c1.815-9.574,7.998-15.995,16.597-15.995c10.305,0,14.547,8.238,15.033,15.995H508.756z
				 M524.872,986.642c-17.57,0-29.445,13.575-29.445,31.752c0,18.546,12.6,31.871,31.505,31.871c12.117,0,22.177-5.45,25.445-14.175
				l-9.447-4.97c-2.544,4.97-8.483,8.604-15.998,8.604c-11.145,0-17.567-7.881-18.541-18.423h44.107
				C553.229,1000.099,544.501,986.522,524.872,986.642z"/>
			<path fill="#001A71" d="M560.006,1018.394c0,19.391,11.875,31.871,31.145,31.871c13.207,0,22.537-5.815,25.808-14.906
				l-10.299-4.363c-2.547,4.97-8.481,8.729-15.509,8.729c-12,0-18.06-8.849-18.06-21.331c0-11.875,5.816-21.328,17.815-21.328
				c5.696,0,10.3,2.182,12.481,4.848v7.515h11.631v-13.694c-5.326-5.935-13.45-9.211-23.992-9.211
				C571.035,986.522,560.006,1001.43,560.006,1018.394z"/>
			<path fill="#001A71" d="M647.972,986.522c-14.178,0-23.146,6.061-23.146,16.723c0,24.359,36.474,15.756,36.474,29.688
				c0,4.971-4.847,7.396-12.601,7.396c-5.574,0-9.936-1.213-13.329-3.514v-7.878h-11.024v12.97
				c5.813,5.814,14.057,8.241,24.23,8.241c14.545,0,25.329-5.82,25.329-17.215c0-23.264-36.596-15.992-36.596-29.688
				c0-4.604,4.361-6.785,11.147-6.785c5.333,0,9.453,1.455,12.116,3.032v7.634h11.03v-14.543
				C666.391,988.826,659.365,986.522,647.972,986.522z"/>
		</g>
	</g>
	<g>
		<path fill="#001A71" d="M141.957,1070.262c2.183,1.454,5.937,2.788,10.661,2.788c12.239,0,19.512-7.513,19.512-20.724v-60.468
			c0-2.664-1.456-4.121-4.121-4.121H150.68v9.088h8.605v57.201c0,5.569-3.033,8.722-7.271,8.722c-2.908,0-5.578-0.726-7.76-1.937
			L141.957,1070.262z M165.345,980.713c4.846,0,8.966-3.999,8.966-9.215c0-4.845-4.12-8.966-8.966-8.966
			c-5.216,0-9.337,4.121-9.337,8.966C156.008,976.714,160.129,980.713,165.345,980.713z"/>
		<path fill="#001A71" d="M225.633,986.526c-12.361,0-19.269,6.545-22.783,14.906h-0.359c0.238-1.455,0.359-3.759,0.359-5.821
			v-3.753c0-2.664-1.451-4.121-4.117-4.121H182.25v9.575h8.967v42.656h-8.967v9.085h31.021v-9.085h-9.209v-18.302
			c0-13.693,6.665-23.872,16.965-23.872c9.453,0,14.18,6.787,14.18,16.97v34.289h21.689v-9.085h-8.848v-27.389
			C248.049,996.704,239.445,986.526,225.633,986.526z"/>
		<path fill="#001A71" d="M308.657,1000.581l1.818-13.204c-1.453-0.487-3.031-0.851-4.971-0.851
			c-11.753,0-18.053,7.515-20.479,16.603h-0.361c0.117-1.819,0.361-4.24,0.361-6.304v-4.967c0-2.664-1.573-4.121-4.119-4.121
			h-16.599v9.937h8.963v42.295h-8.963v9.085h31.625v-9.085h-9.816v-17.089c0-12.845,5.213-23.387,16.239-23.387
			C304.779,999.493,306.597,999.978,308.657,1000.581z"/>
		<path fill="#001A71" d="M319.804,1050.269c4.85,0,8.971-3.998,8.971-9.213c0-4.845-4.121-8.964-8.971-8.964
			c-5.209,0-9.328,4.119-9.328,8.964C310.476,1046.271,314.595,1050.269,319.804,1050.269z"/>
	</g>
</g>
<g>
	<g>
		<path fill="#FFC700" d="M1039.934,831.483c-14.181,0-23.147,6.061-23.147,16.723c0,24.359,36.475,15.756,36.475,29.688
			c0,4.971-4.845,7.396-12.601,7.396c-5.576,0-9.937-1.213-13.331-3.514v-7.878h-11.024v12.97
			c5.814,5.814,14.056,8.241,24.235,8.241c14.539,0,25.324-5.82,25.324-17.215c0-23.264-36.596-15.992-36.596-29.688
			c0-4.604,4.362-6.785,11.148-6.785c5.329,0,9.453,1.455,12.118,3.032v7.634h11.027v-14.543
			C1058.35,833.787,1051.323,831.483,1039.934,831.483z"/>
		<path fill="#FFC700" d="M1108.027,884.44c-5.939,0-11.03-1.695-14.663-5.816v-14.18c0-14.3,6.785-22.171,16.602-22.171
			c10.179,0,16.113,8.237,16.113,20.838C1126.079,876.318,1119.656,884.44,1108.027,884.44z M1113.961,831.603
			c-11.873-0.119-18.539,5.336-21.93,13.335h-0.367c0.367-1.817,0.244-3.517,0.367-5.455l0.12-2.667
			c0.12-2.662-1.576-4.119-4.121-4.119h-16.477v9.816h8.843v69.196h-8.725v8.969h31.022v-8.969h-9.818v-22.786
			c4.002,4.003,10.306,6.303,16.239,6.303c18.179,0,29.932-12.601,29.932-32.114
			C1139.047,844.208,1128.989,831.603,1113.961,831.603z"/>
		<path fill="#FFC700" d="M1160.122,857.66c1.815-9.574,7.998-15.995,16.597-15.995c10.305,0,14.547,8.238,15.033,15.995H1160.122z
			 M1176.238,831.603c-17.57,0-29.445,13.575-29.445,31.752c0,18.546,12.6,31.871,31.505,31.871c12.117,0,22.177-5.45,25.445-14.175
			l-9.447-4.97c-2.544,4.97-8.483,8.604-15.998,8.604c-11.145,0-17.567-7.881-18.541-18.423h44.107
			C1204.596,845.06,1195.867,831.483,1176.238,831.603z"/>
		<path fill="#FFC700" d="M1211.372,863.354c0,19.391,11.875,31.871,31.145,31.871c13.207,0,22.537-5.815,25.808-14.906
			l-10.299-4.363c-2.547,4.97-8.481,8.729-15.509,8.729c-12,0-18.06-8.849-18.06-21.331c0-11.875,5.816-21.328,17.815-21.328
			c5.696,0,10.3,2.182,12.481,4.848v7.515h11.631v-13.694c-5.326-5.935-13.45-9.211-23.992-9.211
			C1222.401,831.483,1211.372,846.391,1211.372,863.354z"/>
		<path fill="#FFC700" d="M1299.338,831.483c-14.178,0-23.146,6.061-23.146,16.723c0,24.359,36.474,15.756,36.474,29.688
			c0,4.971-4.847,7.396-12.601,7.396c-5.574,0-9.936-1.213-13.329-3.514v-7.878h-11.024v12.97c5.813,5.814,14.057,8.241,24.23,8.241
			c14.545,0,25.329-5.82,25.329-17.215c0-23.264-36.596-15.992-36.596-29.688c0-4.604,4.361-6.785,11.147-6.785
			c5.333,0,9.453,1.455,12.116,3.032v7.634h11.03v-14.543C1317.757,833.787,1310.731,831.483,1299.338,831.483z"/>
	</g>
</g>
<path fill="#FFC700" d="M793.323,915.223c2.183,1.454,5.937,2.788,10.661,2.788c12.239,0,19.512-7.513,19.512-20.724v-60.468
	c0-2.664-1.456-4.121-4.121-4.121h-17.329v9.088h8.605v57.201c0,5.569-3.033,8.722-7.271,8.722c-2.908,0-5.578-0.726-7.76-1.937
	L793.323,915.223z"/>
<path fill="#001A71" d="M816.711,825.674c4.846,0,8.966-3.999,8.966-9.215c0-4.845-4.12-8.966-8.966-8.966
	c-5.216,0-9.337,4.121-9.337,8.966C807.374,821.675,811.495,825.674,816.711,825.674z"/>
<path fill="#FFC700" d="M876.999,831.487c-12.361,0-19.269,6.545-22.783,14.906h-0.359c0.238-1.455,0.359-3.759,0.359-5.821v-3.753
	c0-2.664-1.451-4.121-4.117-4.121h-16.482v9.575h8.967v42.656h-8.967v9.085h31.021v-9.085h-9.209v-18.302
	c0-13.693,6.665-23.872,16.965-23.872c9.453,0,14.18,6.787,14.18,16.97v34.289h21.689v-9.085h-8.848v-27.389
	C899.415,841.665,890.812,831.487,876.999,831.487z"/>
<path fill="#FFC700" d="M960.023,845.542l1.818-13.204c-1.453-0.487-3.031-0.851-4.971-0.851c-11.753,0-18.053,7.515-20.479,16.603
	h-0.361c0.117-1.819,0.361-4.24,0.361-6.304v-4.967c0-2.664-1.573-4.121-4.119-4.121h-16.599v9.937h8.963v42.295h-8.963v9.085H947.3
	v-9.085h-9.816v-17.089c0-12.845,5.213-23.387,16.239-23.387C956.146,844.454,957.963,844.938,960.023,845.542z"/>
<path fill="#001A71" d="M971.17,895.229c4.85,0,8.971-3.998,8.971-9.213c0-4.845-4.121-8.964-8.971-8.964
	c-5.209,0-9.328,4.119-9.328,8.964C961.842,891.231,965.961,895.229,971.17,895.229z"/>
<g>
	<g>
		<path fill="#001A71" d="M1039.934,986.522c-14.181,0-23.147,6.061-23.147,16.723c0,24.359,36.475,15.756,36.475,29.688
			c0,4.971-4.845,7.396-12.601,7.396c-5.576,0-9.937-1.213-13.331-3.514v-7.878h-11.024v12.97
			c5.814,5.814,14.056,8.241,24.235,8.241c14.539,0,25.324-5.82,25.324-17.215c0-23.264-36.596-15.992-36.596-29.688
			c0-4.604,4.362-6.785,11.148-6.785c5.329,0,9.453,1.455,12.118,3.032v7.634h11.027v-14.543
			C1058.35,988.826,1051.323,986.522,1039.934,986.522z"/>
		<path fill="#001A71" d="M1108.027,1039.479c-5.939,0-11.03-1.695-14.663-5.816v-14.18c0-14.3,6.785-22.171,16.602-22.171
			c10.179,0,16.113,8.237,16.113,20.838C1126.079,1031.357,1119.656,1039.479,1108.027,1039.479z M1113.961,986.642
			c-11.873-0.119-18.539,5.336-21.93,13.335h-0.367c0.367-1.817,0.244-3.517,0.367-5.455l0.12-2.667
			c0.12-2.662-1.576-4.119-4.121-4.119h-16.477v9.816h8.843v69.196h-8.725v8.969h31.022v-8.969h-9.818v-22.786
			c4.002,4.003,10.306,6.303,16.239,6.303c18.179,0,29.932-12.601,29.932-32.114
			C1139.047,999.247,1128.989,986.642,1113.961,986.642z"/>
		<path fill="#001A71" d="M1160.122,1012.699c1.815-9.574,7.998-15.995,16.597-15.995c10.305,0,14.547,8.238,15.033,15.995H1160.122
			z M1176.238,986.642c-17.57,0-29.445,13.575-29.445,31.752c0,18.546,12.6,31.871,31.505,31.871
			c12.117,0,22.177-5.45,25.445-14.175l-9.447-4.97c-2.544,4.97-8.483,8.604-15.998,8.604c-11.145,0-17.567-7.881-18.541-18.423
			h44.107C1204.596,1000.099,1195.867,986.522,1176.238,986.642z"/>
		<path fill="#001A71" d="M1211.372,1018.394c0,19.391,11.875,31.871,31.145,31.871c13.207,0,22.537-5.815,25.808-14.906
			l-10.299-4.363c-2.547,4.97-8.481,8.729-15.509,8.729c-12,0-18.06-8.849-18.06-21.331c0-11.875,5.816-21.328,17.815-21.328
			c5.696,0,10.3,2.182,12.481,4.848v7.515h11.631v-13.694c-5.326-5.935-13.45-9.211-23.992-9.211
			C1222.401,986.522,1211.372,1001.43,1211.372,1018.394z"/>
		<path fill="#001A71" d="M1299.338,986.522c-14.178,0-23.146,6.061-23.146,16.723c0,24.359,36.474,15.756,36.474,29.688
			c0,4.971-4.847,7.396-12.601,7.396c-5.574,0-9.936-1.213-13.329-3.514v-7.878h-11.024v12.97c5.813,5.814,14.057,8.241,24.23,8.241
			c14.545,0,25.329-5.82,25.329-17.215c0-23.264-36.596-15.992-36.596-29.688c0-4.604,4.361-6.785,11.147-6.785
			c5.333,0,9.453,1.455,12.116,3.032v7.634h11.03v-14.543C1317.757,988.826,1310.731,986.522,1299.338,986.522z"/>
	</g>
</g>
<path fill="#001A71" d="M793.323,1070.262c2.183,1.454,5.937,2.788,10.661,2.788c12.239,0,19.512-7.513,19.512-20.724v-60.468
	c0-2.664-1.456-4.121-4.121-4.121h-17.329v9.088h8.605v57.201c0,5.569-3.033,8.722-7.271,8.722c-2.908,0-5.578-0.726-7.76-1.937
	L793.323,1070.262z"/>
<path fill="#FFC700" d="M816.711,980.713c4.846,0,8.966-3.999,8.966-9.215c0-4.845-4.12-8.966-8.966-8.966
	c-5.216,0-9.337,4.121-9.337,8.966C807.374,976.714,811.495,980.713,816.711,980.713z"/>
<path fill="#001A71" d="M876.999,986.526c-12.361,0-19.269,6.545-22.783,14.906h-0.359c0.238-1.455,0.359-3.759,0.359-5.821v-3.753
	c0-2.664-1.451-4.121-4.117-4.121h-16.482v9.575h8.967v42.656h-8.967v9.085h31.021v-9.085h-9.209v-18.302
	c0-13.693,6.665-23.872,16.965-23.872c9.453,0,14.18,6.787,14.18,16.97v34.289h21.689v-9.085h-8.848v-27.389
	C899.415,996.704,890.812,986.526,876.999,986.526z"/>
<path fill="#001A71" d="M960.023,1000.581l1.818-13.204c-1.453-0.487-3.031-0.851-4.971-0.851c-11.753,0-18.053,7.515-20.479,16.603
	h-0.361c0.117-1.819,0.361-4.24,0.361-6.304v-4.967c0-2.664-1.573-4.121-4.119-4.121h-16.599v9.937h8.963v42.295h-8.963v9.085H947.3
	v-9.085h-9.816v-17.089c0-12.845,5.213-23.387,16.239-23.387C956.146,999.493,957.963,999.978,960.023,1000.581z"/>
<path fill="#FFC700" d="M971.17,1050.269c4.85,0,8.971-3.998,8.971-9.213c0-4.845-4.121-8.964-8.971-8.964
	c-5.209,0-9.328,4.119-9.328,8.964C961.842,1046.271,965.961,1050.269,971.17,1050.269z"/>
<g>
	<path fill="#001A71" d="M1093.938,647.86c2.496,1.663,6.791,3.186,12.206,3.186c14.006,0,22.324-8.596,22.324-23.716v-69.203
		c0-3.05-1.663-4.717-4.716-4.717h-19.83v10.402h9.846v65.461c0,6.38-3.467,9.985-8.318,9.985c-3.33,0-6.383-0.829-8.881-2.216
		L1093.938,647.86z"/>
	<path fill="#FFC700" d="M1119.516,545.364c5.547,0,10.264-4.574,10.264-10.539c0-5.547-4.717-10.261-10.264-10.261
		c-5.964,0-10.68,4.714-10.68,10.261C1108.836,540.79,1113.552,545.364,1119.516,545.364z"/>
	<path fill="#001A71" d="M1193.601,552.023c-14.146,0-22.052,7.489-26.075,17.057h-0.413c0.276-1.662,0.413-4.296,0.413-6.657
		v-4.296c0-3.05-1.66-4.717-4.711-4.717h-18.863v10.956h10.263v48.821h-10.263v10.399h36.277v-10.399h-11.314v-20.942
		c0-15.674,7.629-27.324,19.416-27.324c10.817,0,16.228,7.769,16.228,19.417v39.249h24.826v-10.399h-10.126v-31.346
		C1219.258,563.671,1209.413,552.023,1193.601,552.023z"/>
	<path fill="#001A71" d="M1288.835,568.112l2.082-15.115c-1.662-0.56-3.466-0.974-5.689-0.974c-13.449,0-20.66,8.601-23.438,19.001
		h-0.416c0.137-2.083,0.416-4.854,0.416-7.212v-5.686c0-3.05-1.799-4.717-4.717-4.717h-18.992v11.374h10.257v48.403h-10.257v10.399
		h36.196v-10.399h-11.235v-19.559c0-14.699,5.961-26.765,18.585-26.765C1284.397,566.864,1286.479,567.418,1288.835,568.112z"/>
	<g>
		<path fill="#001A71" d="M1154.615,640.291c-7.828,0-12.775,3.344-12.775,9.232c0,13.449,20.136,8.701,20.136,16.391
			c0,2.742-2.673,4.081-6.958,4.081c-3.077,0-5.484-0.67-7.359-1.938v-4.35h-6.088v7.157c3.213,3.209,7.761,4.549,13.381,4.549
			c8.029,0,13.983-3.215,13.983-9.499c0-12.849-20.203-8.832-20.203-16.391c0-2.546,2.405-3.746,6.153-3.746
			c2.941,0,5.218,0.802,6.69,1.671v4.218h6.088v-8.031C1164.787,641.561,1160.906,640.291,1154.615,640.291z"/>
		<path fill="#001A71" d="M1192.213,669.525c-3.281,0-6.09-0.938-8.095-3.209v-7.827c0-7.897,3.743-12.244,9.165-12.244
			c5.623,0,8.898,4.546,8.898,11.506C1202.182,665.042,1198.633,669.525,1192.213,669.525z M1195.489,640.354
			c-6.558-0.063-10.233,2.946-12.106,7.361h-0.201c0.201-1.004,0.131-1.938,0.201-3.013l0.064-1.47
			c0.065-1.472-0.869-2.274-2.274-2.274h-9.097v5.42h4.883v38.201h-4.818v4.953h17.13v-4.953h-5.423v-12.581
			c2.209,2.211,5.688,3.482,8.967,3.482c10.034,0,16.524-6.957,16.524-17.73C1209.339,647.316,1203.789,640.354,1195.489,640.354z"
			/>
		<path fill="#001A71" d="M1220.978,654.742c1-5.285,4.414-8.836,9.165-8.836c5.685,0,8.027,4.552,8.296,8.836H1220.978z
			 M1229.875,640.354c-9.703,0-16.259,7.495-16.259,17.53c0,10.24,6.957,17.597,17.392,17.597c6.692,0,12.245-3.01,14.054-7.827
			l-5.217-2.744c-1.406,2.744-4.688,4.748-8.837,4.748c-6.152,0-9.699-4.348-10.232-10.166h24.352
			C1245.527,647.781,1240.714,640.291,1229.875,640.354z"/>
		<path fill="#001A71" d="M1249.272,657.885c0,10.702,6.555,17.597,17.192,17.597c7.29,0,12.442-3.212,14.249-8.23l-5.688-2.409
			c-1.403,2.742-4.68,4.816-8.561,4.816c-6.625,0-9.968-4.879-9.968-11.773c0-6.556,3.211-11.776,9.838-11.776
			c3.139,0,5.682,1.208,6.888,2.679v4.149h6.419v-7.561c-2.943-3.28-7.421-5.085-13.248-5.085
			C1255.356,640.291,1249.272,648.52,1249.272,657.885z"/>
		<path fill="#001A71" d="M1297.836,640.291c-7.827,0-12.774,3.344-12.774,9.232c0,13.449,20.135,8.701,20.135,16.391
			c0,2.742-2.674,4.081-6.955,4.081c-3.08,0-5.484-0.67-7.359-1.938v-4.35h-6.09v7.157c3.212,3.209,7.762,4.549,13.378,4.549
			c8.028,0,13.985-3.215,13.985-9.499c0-12.849-20.204-8.832-20.204-16.391c0-2.546,2.405-3.746,6.153-3.746
			c2.943,0,5.218,0.802,6.692,1.671v4.218h6.089v-8.031C1308.008,641.561,1304.128,640.291,1297.836,640.291z"/>
	</g>
	<path fill="#FFC700" d="M1301.596,624.975c5.55,0,10.268-4.575,10.268-10.539c0-5.548-4.718-10.265-10.268-10.265
		c-5.963,0-10.679,4.717-10.679,10.265C1290.917,620.399,1295.633,624.975,1301.596,624.975z"/>
</g>
<g>
	<path fill="#FFC700" d="M798.438,647.86c2.496,1.663,6.791,3.186,12.206,3.186c14.006,0,22.324-8.596,22.324-23.716v-69.203
		c0-3.05-1.663-4.717-4.716-4.717h-19.83v10.402h9.846v65.461c0,6.38-3.467,9.985-8.318,9.985c-3.33,0-6.383-0.829-8.881-2.216
		L798.438,647.86z"/>
	<path fill="#001A71" d="M824.016,545.364c5.547,0,10.264-4.574,10.264-10.539c0-5.547-4.717-10.261-10.264-10.261
		c-5.964,0-10.68,4.714-10.68,10.261C813.336,540.79,818.052,545.364,824.016,545.364z"/>
	<path fill="#FFC700" d="M898.101,552.023c-14.146,0-22.052,7.489-26.075,17.057h-0.413c0.276-1.662,0.413-4.296,0.413-6.657v-4.296
		c0-3.05-1.66-4.717-4.711-4.717h-18.863v10.956h10.263v48.821h-10.263v10.399h36.277v-10.399h-11.314v-20.942
		c0-15.674,7.629-27.324,19.416-27.324c10.817,0,16.228,7.769,16.228,19.417v39.249h24.826v-10.399h-10.126v-31.346
		C923.758,563.671,913.913,552.023,898.101,552.023z"/>
	<path fill="#FFC700" d="M993.335,568.112l2.082-15.115c-1.662-0.56-3.466-0.974-5.689-0.974c-13.449,0-20.66,8.601-23.438,19.001
		h-0.416c0.137-2.083,0.416-4.854,0.416-7.212v-5.686c0-3.05-1.799-4.717-4.717-4.717h-18.992v11.374h10.257v48.403h-10.257v10.399
		h36.196v-10.399h-11.235v-19.559c0-14.699,5.961-26.765,18.585-26.765C988.897,566.864,990.979,567.418,993.335,568.112z"/>
	<g>
		<path fill="#FFC700" d="M859.115,640.291c-7.828,0-12.775,3.344-12.775,9.232c0,13.449,20.136,8.701,20.136,16.391
			c0,2.742-2.673,4.081-6.958,4.081c-3.077,0-5.484-0.67-7.359-1.938v-4.35h-6.088v7.157c3.213,3.209,7.761,4.549,13.381,4.549
			c8.029,0,13.983-3.215,13.983-9.499c0-12.849-20.203-8.832-20.203-16.391c0-2.546,2.405-3.746,6.153-3.746
			c2.941,0,5.218,0.802,6.69,1.671v4.218h6.088v-8.031C869.287,641.561,865.406,640.291,859.115,640.291z"/>
		<path fill="#FFC700" d="M896.713,669.525c-3.281,0-6.09-0.938-8.095-3.209v-7.827c0-7.897,3.743-12.244,9.165-12.244
			c5.623,0,8.898,4.546,8.898,11.506C906.682,665.042,903.133,669.525,896.713,669.525z M899.989,640.354
			c-6.558-0.063-10.233,2.946-12.106,7.361h-0.201c0.201-1.004,0.131-1.938,0.201-3.013l0.064-1.47
			c0.065-1.472-0.869-2.274-2.274-2.274h-9.097v5.42h4.883v38.201h-4.818v4.953h17.13v-4.953h-5.423v-12.581
			c2.209,2.211,5.688,3.482,8.967,3.482c10.034,0,16.524-6.957,16.524-17.73C913.839,647.316,908.289,640.354,899.989,640.354z"/>
		<path fill="#FFC700" d="M925.478,654.742c1-5.285,4.414-8.836,9.165-8.836c5.685,0,8.027,4.552,8.296,8.836H925.478z
			 M934.375,640.354c-9.703,0-16.259,7.495-16.259,17.53c0,10.24,6.957,17.597,17.392,17.597c6.692,0,12.245-3.01,14.054-7.827
			l-5.217-2.744c-1.406,2.744-4.688,4.748-8.837,4.748c-6.152,0-9.699-4.348-10.232-10.166h24.352
			C950.027,647.781,945.214,640.291,934.375,640.354z"/>
		<path fill="#FFC700" d="M953.772,657.885c0,10.702,6.555,17.597,17.192,17.597c7.29,0,12.442-3.212,14.249-8.23l-5.688-2.409
			c-1.403,2.742-4.68,4.816-8.561,4.816c-6.625,0-9.968-4.879-9.968-11.773c0-6.556,3.211-11.776,9.838-11.776
			c3.139,0,5.682,1.208,6.888,2.679v4.149h6.419v-7.561c-2.943-3.28-7.421-5.085-13.248-5.085
			C959.856,640.291,953.772,648.52,953.772,657.885z"/>
		<path fill="#FFC700" d="M1002.336,640.291c-7.827,0-12.774,3.344-12.774,9.232c0,13.449,20.135,8.701,20.135,16.391
			c0,2.742-2.674,4.081-6.955,4.081c-3.08,0-5.484-0.67-7.359-1.938v-4.35h-6.09v7.157c3.212,3.209,7.762,4.549,13.378,4.549
			c8.028,0,13.985-3.215,13.985-9.499c0-12.849-20.204-8.832-20.204-16.391c0-2.546,2.405-3.746,6.153-3.746
			c2.943,0,5.218,0.802,6.692,1.671v4.218h6.089v-8.031C1012.508,641.561,1008.628,640.291,1002.336,640.291z"/>
	</g>
	<path fill="#001A71" d="M1006.096,624.975c5.55,0,10.268-4.575,10.268-10.539c0-5.548-4.718-10.265-10.268-10.265
		c-5.963,0-10.679,4.717-10.679,10.265C995.417,620.399,1000.133,624.975,1006.096,624.975z"/>
</g>
<g>
	<path fill="#001A71" d="M1093.938,387.643c2.496,1.663,6.791,3.186,12.206,3.186c14.006,0,22.324-8.596,22.324-23.716v-69.203
		c0-3.05-1.663-4.717-4.716-4.717h-19.83v10.402h9.846v65.461c0,6.38-3.467,9.985-8.318,9.985c-3.33,0-6.383-0.829-8.881-2.216
		L1093.938,387.643z"/>
	<path fill="#001A71" d="M1119.516,285.146c5.547,0,10.264-4.574,10.264-10.539c0-5.547-4.717-10.261-10.264-10.261
		c-5.964,0-10.68,4.714-10.68,10.261C1108.836,280.572,1113.552,285.146,1119.516,285.146z"/>
	<path fill="#001A71" d="M1193.601,291.806c-14.146,0-22.052,7.489-26.075,17.057h-0.413c0.276-1.662,0.413-4.296,0.413-6.657
		v-4.296c0-3.05-1.66-4.717-4.711-4.717h-18.863v10.956h10.263v48.821h-10.263v10.399h36.277V352.97h-11.314v-20.942
		c0-15.674,7.629-27.324,19.416-27.324c10.817,0,16.228,7.769,16.228,19.417v39.249h24.826V352.97h-10.126v-31.346
		C1219.258,303.453,1209.413,291.806,1193.601,291.806z"/>
	<path fill="#001A71" d="M1288.835,307.895l2.082-15.115c-1.662-0.56-3.466-0.974-5.689-0.974c-13.449,0-20.66,8.601-23.438,19.001
		h-0.416c0.137-2.083,0.416-4.854,0.416-7.212v-5.686c0-3.05-1.799-4.717-4.717-4.717h-18.992v11.374h10.257v48.403h-10.257v10.399
		h36.196V352.97h-11.235v-19.559c0-14.699,5.961-26.765,18.585-26.765C1284.397,306.646,1286.479,307.2,1288.835,307.895z"/>
	<g>
		<path fill="#001A71" d="M1154.615,380.073c-7.828,0-12.775,3.344-12.775,9.232c0,13.449,20.136,8.701,20.136,16.391
			c0,2.742-2.673,4.081-6.958,4.081c-3.077,0-5.484-0.67-7.359-1.938v-4.35h-6.088v7.157c3.213,3.209,7.761,4.549,13.381,4.549
			c8.029,0,13.983-3.215,13.983-9.499c0-12.849-20.203-8.832-20.203-16.391c0-2.546,2.405-3.746,6.153-3.746
			c2.941,0,5.218,0.802,6.69,1.671v4.218h6.088v-8.031C1164.787,381.343,1160.906,380.073,1154.615,380.073z"/>
		<path fill="#001A71" d="M1192.213,409.308c-3.281,0-6.09-0.938-8.095-3.209v-7.827c0-7.897,3.743-12.244,9.165-12.244
			c5.623,0,8.898,4.546,8.898,11.506C1202.182,404.824,1198.633,409.308,1192.213,409.308z M1195.489,380.137
			c-6.558-0.063-10.233,2.946-12.106,7.361h-0.201c0.201-1.004,0.131-1.938,0.201-3.013l0.064-1.47
			c0.065-1.472-0.869-2.274-2.274-2.274h-9.097v5.42h4.883v38.201h-4.818v4.953h17.13v-4.953h-5.423v-12.581
			c2.209,2.211,5.688,3.482,8.967,3.482c10.034,0,16.524-6.957,16.524-17.73C1209.339,387.099,1203.789,380.137,1195.489,380.137z"
			/>
		<path fill="#001A71" d="M1220.978,394.524c1-5.285,4.414-8.836,9.165-8.836c5.685,0,8.027,4.552,8.296,8.836H1220.978z
			 M1229.875,380.137c-9.703,0-16.259,7.495-16.259,17.53c0,10.24,6.957,17.597,17.392,17.597c6.692,0,12.245-3.01,14.054-7.827
			l-5.217-2.744c-1.406,2.744-4.688,4.748-8.837,4.748c-6.152,0-9.699-4.348-10.232-10.166h24.352
			C1245.527,387.563,1240.714,380.073,1229.875,380.137z"/>
		<path fill="#001A71" d="M1249.272,397.667c0,10.702,6.555,17.597,17.192,17.597c7.29,0,12.442-3.212,14.249-8.23l-5.688-2.409
			c-1.403,2.742-4.68,4.816-8.561,4.816c-6.625,0-9.968-4.879-9.968-11.773c0-6.556,3.211-11.776,9.838-11.776
			c3.139,0,5.682,1.208,6.888,2.679v4.149h6.419v-7.561c-2.943-3.28-7.421-5.085-13.248-5.085
			C1255.356,380.073,1249.272,388.302,1249.272,397.667z"/>
		<path fill="#001A71" d="M1297.836,380.073c-7.827,0-12.774,3.344-12.774,9.232c0,13.449,20.135,8.701,20.135,16.391
			c0,2.742-2.674,4.081-6.955,4.081c-3.08,0-5.484-0.67-7.359-1.938v-4.35h-6.09v7.157c3.212,3.209,7.762,4.549,13.378,4.549
			c8.028,0,13.985-3.215,13.985-9.499c0-12.849-20.204-8.832-20.204-16.391c0-2.546,2.405-3.746,6.153-3.746
			c2.943,0,5.218,0.802,6.692,1.671v4.218h6.089v-8.031C1308.008,381.343,1304.128,380.073,1297.836,380.073z"/>
	</g>
	<path fill="#001A71" d="M1301.596,364.757c5.55,0,10.268-4.575,10.268-10.539c0-5.548-4.718-10.265-10.268-10.265
		c-5.963,0-10.679,4.717-10.679,10.265C1290.917,360.182,1295.633,364.757,1301.596,364.757z"/>
</g>
<g>
	<path fill="#FFC700" d="M798.438,387.643c2.496,1.663,6.791,3.186,12.206,3.186c14.006,0,22.324-8.596,22.324-23.716v-69.203
		c0-3.05-1.663-4.717-4.716-4.717h-19.83v10.402h9.846v65.461c0,6.38-3.467,9.985-8.318,9.985c-3.33,0-6.383-0.829-8.881-2.216
		L798.438,387.643z"/>
	<path fill="#FFC700" d="M824.016,285.146c5.547,0,10.264-4.574,10.264-10.539c0-5.547-4.717-10.261-10.264-10.261
		c-5.964,0-10.68,4.714-10.68,10.261C813.336,280.572,818.052,285.146,824.016,285.146z"/>
	<path fill="#FFC700" d="M898.101,291.806c-14.146,0-22.052,7.489-26.075,17.057h-0.413c0.276-1.662,0.413-4.296,0.413-6.657v-4.296
		c0-3.05-1.66-4.717-4.711-4.717h-18.863v10.956h10.263v48.821h-10.263v10.399h36.277V352.97h-11.314v-20.942
		c0-15.674,7.629-27.324,19.416-27.324c10.817,0,16.228,7.769,16.228,19.417v39.249h24.826V352.97h-10.126v-31.346
		C923.758,303.453,913.913,291.806,898.101,291.806z"/>
	<path fill="#FFC700" d="M993.335,307.895l2.082-15.115c-1.662-0.56-3.466-0.974-5.689-0.974c-13.449,0-20.66,8.601-23.438,19.001
		h-0.416c0.137-2.083,0.416-4.854,0.416-7.212v-5.686c0-3.05-1.799-4.717-4.717-4.717h-18.992v11.374h10.257v48.403h-10.257v10.399
		h36.196V352.97h-11.235v-19.559c0-14.699,5.961-26.765,18.585-26.765C988.897,306.646,990.979,307.2,993.335,307.895z"/>
	<g>
		<path fill="#FFC700" d="M859.115,380.073c-7.828,0-12.775,3.344-12.775,9.232c0,13.449,20.136,8.701,20.136,16.391
			c0,2.742-2.673,4.081-6.958,4.081c-3.077,0-5.484-0.67-7.359-1.938v-4.35h-6.088v7.157c3.213,3.209,7.761,4.549,13.381,4.549
			c8.029,0,13.983-3.215,13.983-9.499c0-12.849-20.203-8.832-20.203-16.391c0-2.546,2.405-3.746,6.153-3.746
			c2.941,0,5.218,0.802,6.69,1.671v4.218h6.088v-8.031C869.287,381.343,865.406,380.073,859.115,380.073z"/>
		<path fill="#FFC700" d="M896.713,409.308c-3.281,0-6.09-0.938-8.095-3.209v-7.827c0-7.897,3.743-12.244,9.165-12.244
			c5.623,0,8.898,4.546,8.898,11.506C906.682,404.824,903.133,409.308,896.713,409.308z M899.989,380.137
			c-6.558-0.063-10.233,2.946-12.106,7.361h-0.201c0.201-1.004,0.131-1.938,0.201-3.013l0.064-1.47
			c0.065-1.472-0.869-2.274-2.274-2.274h-9.097v5.42h4.883v38.201h-4.818v4.953h17.13v-4.953h-5.423v-12.581
			c2.209,2.211,5.688,3.482,8.967,3.482c10.034,0,16.524-6.957,16.524-17.73C913.839,387.099,908.289,380.137,899.989,380.137z"/>
		<path fill="#FFC700" d="M925.478,394.524c1-5.285,4.414-8.836,9.165-8.836c5.685,0,8.027,4.552,8.296,8.836H925.478z
			 M934.375,380.137c-9.703,0-16.259,7.495-16.259,17.53c0,10.24,6.957,17.597,17.392,17.597c6.692,0,12.245-3.01,14.054-7.827
			l-5.217-2.744c-1.406,2.744-4.688,4.748-8.837,4.748c-6.152,0-9.699-4.348-10.232-10.166h24.352
			C950.027,387.563,945.214,380.073,934.375,380.137z"/>
		<path fill="#FFC700" d="M953.772,397.667c0,10.702,6.555,17.597,17.192,17.597c7.29,0,12.442-3.212,14.249-8.23l-5.688-2.409
			c-1.403,2.742-4.68,4.816-8.561,4.816c-6.625,0-9.968-4.879-9.968-11.773c0-6.556,3.211-11.776,9.838-11.776
			c3.139,0,5.682,1.208,6.888,2.679v4.149h6.419v-7.561c-2.943-3.28-7.421-5.085-13.248-5.085
			C959.856,380.073,953.772,388.302,953.772,397.667z"/>
		<path fill="#FFC700" d="M1002.336,380.073c-7.827,0-12.774,3.344-12.774,9.232c0,13.449,20.135,8.701,20.135,16.391
			c0,2.742-2.674,4.081-6.955,4.081c-3.08,0-5.484-0.67-7.359-1.938v-4.35h-6.09v7.157c3.212,3.209,7.762,4.549,13.378,4.549
			c8.028,0,13.985-3.215,13.985-9.499c0-12.849-20.204-8.832-20.204-16.391c0-2.546,2.405-3.746,6.153-3.746
			c2.943,0,5.218,0.802,6.692,1.671v4.218h6.089v-8.031C1012.508,381.343,1008.628,380.073,1002.336,380.073z"/>
	</g>
	<path fill="#FFC700" d="M1006.096,364.757c5.55,0,10.268-4.575,10.268-10.539c0-5.548-4.718-10.265-10.268-10.265
		c-5.963,0-10.679,4.717-10.679,10.265C995.417,360.182,1000.133,364.757,1006.096,364.757z"/>
</g>
<text transform="matrix(1 0 0 1 90.5498 99.2344)" font-family="'AkzidenzGroteskBQ-Reg'" font-size="24.4274">OFFICIAL LOGO</text>
<text transform="matrix(1 0 0 1 90.5498 139.7334)" font-family="'AkzidenzGroteskBQ-Reg'" font-size="24.4274">alternate colours</text>
<circle fill="#FFC700" cx="234.125" cy="335.057" r="116.551"/>
<g>
	<path fill="#001A71" d="M151.963,365.113c1.882,1.252,5.117,2.4,9.193,2.4c10.549,0,16.815-6.476,16.815-17.863v-52.123
		c0-2.296-1.253-3.552-3.552-3.552h-14.937v7.835h7.417v49.305c0,4.804-2.611,7.521-6.268,7.521c-2.508,0-4.808-0.626-6.687-1.671
		L151.963,365.113z M171.229,287.917c4.178,0,7.729-3.445,7.729-7.938c0-4.178-3.552-7.729-7.729-7.729
		c-4.492,0-8.044,3.552-8.044,7.729C163.186,284.472,166.737,287.917,171.229,287.917z"/>
	<path fill="#001A71" d="M227.027,292.933c-10.653,0-16.61,5.64-19.639,12.848h-0.311c0.208-1.253,0.311-3.237,0.311-5.016v-3.237
		c0-2.296-1.252-3.552-3.548-3.552h-14.209v8.253h7.731v36.771h-7.731v7.832h27.323v-7.832h-8.521v-15.773
		c0-11.806,5.745-20.58,14.622-20.58c8.148,0,12.224,5.851,12.224,14.625v29.561h18.696v-7.832h-7.625v-23.608
		C246.352,301.705,238.936,292.933,227.027,292.933z"/>
	<path fill="#001A71" d="M298.754,305.049l1.569-11.384c-1.252-0.421-2.61-0.732-4.285-0.732c-10.129,0-15.562,6.477-17.653,14.312
		h-0.312c0.103-1.569,0.312-3.658,0.312-5.434v-4.283c0-2.296-1.354-3.552-3.552-3.552h-14.305v8.567h7.726v36.456h-7.726v7.832
		h27.261v-7.832h-8.462v-14.73c0-11.071,4.491-20.159,13.998-20.159C295.413,304.109,296.98,304.527,298.754,305.049z"/>
	<g>
		<path fill="#001A71" d="M197.665,359.412c-5.896,0-9.624,2.52-9.624,6.953c0,10.129,15.166,6.553,15.166,12.346
			c0,2.065-2.013,3.074-5.24,3.074c-2.318,0-4.13-0.505-5.541-1.461v-3.275h-4.586v5.391c2.418,2.417,5.844,3.426,10.077,3.426
			c6.047,0,10.531-2.421,10.531-7.154c0-9.676-15.217-6.651-15.217-12.346c0-1.916,1.813-2.821,4.637-2.821
			c2.214,0,3.93,0.604,5.037,1.259v3.176h4.586v-6.047C205.326,360.369,202.401,359.412,197.665,359.412z"/>
		<path fill="#001A71" d="M225.981,381.431c-2.47,0-4.586-0.705-6.096-2.418v-5.895c0-5.947,2.819-9.222,6.9-9.222
			c4.235,0,6.704,3.426,6.704,8.667C233.49,378.054,230.817,381.431,225.981,381.431z M228.45,359.461
			c-4.938-0.049-7.709,2.219-9.118,5.544h-0.153c0.153-0.756,0.101-1.461,0.153-2.269l0.047-1.107
			c0.051-1.109-0.653-1.713-1.713-1.713h-6.852v4.081h3.678v28.772h-3.629v3.729h12.901v-3.729h-4.083v-9.476
			c1.662,1.667,4.284,2.624,6.755,2.624c7.555,0,12.444-5.24,12.444-13.354C238.881,364.704,234.699,359.461,228.45,359.461z"/>
		<path fill="#001A71" d="M247.646,370.296c0.755-3.98,3.326-6.653,6.904-6.653c4.281,0,6.045,3.428,6.247,6.653H247.646z
			 M254.348,359.461c-7.309,0-12.245,5.646-12.245,13.202c0,7.713,5.24,13.255,13.1,13.255c5.04,0,9.221-2.268,10.583-5.896
			l-3.93-2.066c-1.059,2.066-3.528,3.576-6.653,3.576c-4.636,0-7.306-3.274-7.709-7.657h18.342
			C266.136,365.055,262.51,359.412,254.348,359.461z"/>
		<path fill="#001A71" d="M268.958,372.663c0,8.062,4.938,13.255,12.949,13.255c5.488,0,9.369-2.42,10.731-6.2l-4.284-1.814
			c-1.057,2.066-3.525,3.628-6.447,3.628c-4.991,0-7.51-3.675-7.51-8.868c0-4.936,2.42-8.868,7.409-8.868
			c2.366,0,4.282,0.909,5.189,2.017v3.125h4.833v-5.695c-2.217-2.47-5.589-3.829-9.976-3.829
			C273.539,359.412,268.958,365.609,268.958,372.663z"/>
		<path fill="#001A71" d="M305.534,359.412c-5.895,0-9.621,2.52-9.621,6.953c0,10.129,15.164,6.553,15.164,12.346
			c0,2.065-2.015,3.074-5.237,3.074c-2.319,0-4.133-0.505-5.544-1.461v-3.275h-4.586v5.391c2.418,2.417,5.846,3.426,10.076,3.426
			c6.047,0,10.533-2.421,10.533-7.154c0-9.676-15.219-6.651-15.219-12.346c0-1.916,1.812-2.821,4.635-2.821
			c2.217,0,3.93,0.604,5.04,1.259v3.176h4.586v-6.047C313.195,360.369,310.271,359.412,305.534,359.412z"/>
	</g>
	<path fill="#001A71" d="M308.364,347.876c4.182,0,7.733-3.445,7.733-7.938c0-4.178-3.552-7.729-7.733-7.729
		c-4.489,0-8.041,3.552-8.041,7.729C300.323,344.431,303.875,347.876,308.364,347.876z"/>
</g>
<circle fill="#001A71" cx="514.66" cy="335.057" r="116.551"/>
<g>
	<path fill="#FFC700" d="M432.498,365.113c1.882,1.252,5.117,2.4,9.193,2.4c10.549,0,16.815-6.476,16.815-17.863v-52.123
		c0-2.296-1.253-3.552-3.552-3.552h-14.937v7.835h7.417v49.305c0,4.804-2.611,7.521-6.268,7.521c-2.508,0-4.808-0.626-6.687-1.671
		L432.498,365.113z M451.765,287.917c4.178,0,7.729-3.445,7.729-7.938c0-4.178-3.552-7.729-7.729-7.729
		c-4.492,0-8.044,3.552-8.044,7.729C443.721,284.472,447.272,287.917,451.765,287.917z"/>
	<path fill="#FFC700" d="M507.562,292.933c-10.653,0-16.61,5.64-19.639,12.848h-0.311c0.208-1.253,0.311-3.237,0.311-5.016v-3.237
		c0-2.296-1.252-3.552-3.548-3.552h-14.209v8.253h7.731v36.771h-7.731v7.832h27.323v-7.832h-8.521v-15.773
		c0-11.806,5.745-20.58,14.622-20.58c8.148,0,12.224,5.851,12.224,14.625v29.561h18.696v-7.832h-7.625v-23.608
		C526.887,301.705,519.471,292.933,507.562,292.933z"/>
	<path fill="#FFC700" d="M579.289,305.049l1.569-11.384c-1.252-0.421-2.61-0.732-4.285-0.732c-10.129,0-15.562,6.477-17.653,14.312
		h-0.312c0.103-1.569,0.312-3.658,0.312-5.434v-4.283c0-2.296-1.354-3.552-3.552-3.552h-14.305v8.567h7.726v36.456h-7.726v7.832
		h27.261v-7.832h-8.462v-14.73c0-11.071,4.491-20.159,13.998-20.159C575.948,304.109,577.516,304.527,579.289,305.049z"/>
	<g>
		<path fill="#FFC700" d="M478.2,359.412c-5.896,0-9.624,2.52-9.624,6.953c0,10.129,15.166,6.553,15.166,12.346
			c0,2.065-2.013,3.074-5.24,3.074c-2.318,0-4.13-0.505-5.541-1.461v-3.275h-4.586v5.391c2.418,2.417,5.844,3.426,10.077,3.426
			c6.047,0,10.531-2.421,10.531-7.154c0-9.676-15.217-6.651-15.217-12.346c0-1.916,1.813-2.821,4.637-2.821
			c2.214,0,3.93,0.604,5.037,1.259v3.176h4.586v-6.047C485.861,360.369,482.937,359.412,478.2,359.412z"/>
		<path fill="#FFC700" d="M506.517,381.431c-2.47,0-4.586-0.705-6.096-2.418v-5.895c0-5.947,2.819-9.222,6.9-9.222
			c4.235,0,6.704,3.426,6.704,8.667C514.025,378.054,511.353,381.431,506.517,381.431z M508.985,359.461
			c-4.938-0.049-7.709,2.219-9.118,5.544h-0.153c0.153-0.756,0.101-1.461,0.153-2.269l0.047-1.107
			c0.051-1.109-0.653-1.713-1.713-1.713h-6.852v4.081h3.678v28.772h-3.629v3.729H504.3v-3.729h-4.083v-9.476
			c1.662,1.667,4.284,2.624,6.755,2.624c7.555,0,12.444-5.24,12.444-13.354C519.416,364.704,515.234,359.461,508.985,359.461z"/>
		<path fill="#FFC700" d="M528.181,370.296c0.755-3.98,3.326-6.653,6.904-6.653c4.281,0,6.045,3.428,6.247,6.653H528.181z
			 M534.883,359.461c-7.309,0-12.245,5.646-12.245,13.202c0,7.713,5.24,13.255,13.1,13.255c5.04,0,9.221-2.268,10.583-5.896
			l-3.93-2.066c-1.059,2.066-3.528,3.576-6.653,3.576c-4.636,0-7.306-3.274-7.709-7.657h18.342
			C546.671,365.055,543.045,359.412,534.883,359.461z"/>
		<path fill="#FFC700" d="M549.493,372.663c0,8.062,4.938,13.255,12.949,13.255c5.488,0,9.369-2.42,10.731-6.2l-4.284-1.814
			c-1.057,2.066-3.525,3.628-6.447,3.628c-4.991,0-7.51-3.675-7.51-8.868c0-4.936,2.42-8.868,7.409-8.868
			c2.366,0,4.282,0.909,5.189,2.017v3.125h4.833v-5.695c-2.217-2.47-5.589-3.829-9.976-3.829
			C554.074,359.412,549.493,365.609,549.493,372.663z"/>
		<path fill="#FFC700" d="M586.069,359.412c-5.895,0-9.621,2.52-9.621,6.953c0,10.129,15.164,6.553,15.164,12.346
			c0,2.065-2.015,3.074-5.237,3.074c-2.319,0-4.133-0.505-5.544-1.461v-3.275h-4.586v5.391c2.418,2.417,5.846,3.426,10.076,3.426
			c6.047,0,10.533-2.421,10.533-7.154c0-9.676-15.219-6.651-15.219-12.346c0-1.916,1.812-2.821,4.635-2.821
			c2.217,0,3.93,0.604,5.04,1.259v3.176h4.586v-6.047C593.73,360.369,590.807,359.412,586.069,359.412z"/>
	</g>
	<path fill="#FFC700" d="M588.899,347.876c4.182,0,7.733-3.445,7.733-7.938c0-4.178-3.552-7.729-7.733-7.729
		c-4.489,0-8.041,3.552-8.041,7.729C580.858,344.431,584.41,347.876,588.899,347.876z"/>
</g>
<circle fill="#FFC700" cx="234.125" cy="595.274" r="116.551"/>
<g>
	<path fill="#FFFFFF" d="M151.963,625.331c1.882,1.252,5.117,2.4,9.193,2.4c10.549,0,16.815-6.476,16.815-17.863v-52.123
		c0-2.296-1.253-3.552-3.552-3.552h-14.937v7.835h7.417v49.305c0,4.804-2.611,7.521-6.268,7.521c-2.508,0-4.808-0.626-6.687-1.671
		L151.963,625.331z"/>
	<path fill="#001A71" d="M171.229,548.135c4.178,0,7.729-3.445,7.729-7.938c0-4.178-3.552-7.729-7.729-7.729
		c-4.492,0-8.044,3.552-8.044,7.729C163.186,544.689,166.737,548.135,171.229,548.135z"/>
	<path fill="#FFFFFF" d="M227.027,553.15c-10.653,0-16.61,5.64-19.639,12.848h-0.311c0.208-1.253,0.311-3.237,0.311-5.016v-3.237
		c0-2.296-1.252-3.552-3.548-3.552h-14.209v8.253h7.731v36.771h-7.731v7.832h27.323v-7.832h-8.521v-15.773
		c0-11.806,5.745-20.58,14.622-20.58c8.148,0,12.224,5.851,12.224,14.625v29.561h18.696v-7.832h-7.625v-23.608
		C246.352,561.923,238.936,553.15,227.027,553.15z"/>
	<path fill="#FFFFFF" d="M298.754,565.267l1.569-11.384c-1.252-0.421-2.61-0.732-4.285-0.732c-10.129,0-15.562,6.477-17.653,14.312
		h-0.312c0.103-1.569,0.312-3.658,0.312-5.434v-4.283c0-2.296-1.354-3.552-3.552-3.552h-14.305v8.567h7.726v36.456h-7.726v7.832
		h27.261v-7.832h-8.462v-14.73c0-11.071,4.491-20.159,13.998-20.159C295.413,564.327,296.98,564.745,298.754,565.267z"/>
	<g>
		<path fill="#FFFFFF" d="M197.665,619.63c-5.896,0-9.624,2.52-9.624,6.953c0,10.129,15.166,6.553,15.166,12.346
			c0,2.065-2.013,3.074-5.24,3.074c-2.318,0-4.13-0.505-5.541-1.461v-3.275h-4.586v5.391c2.418,2.417,5.844,3.426,10.077,3.426
			c6.047,0,10.531-2.421,10.531-7.154c0-9.676-15.217-6.651-15.217-12.346c0-1.916,1.813-2.821,4.637-2.821
			c2.214,0,3.93,0.604,5.037,1.259v3.176h4.586v-6.047C205.326,620.587,202.401,619.63,197.665,619.63z"/>
		<path fill="#FFFFFF" d="M225.981,641.648c-2.47,0-4.586-0.705-6.096-2.418v-5.895c0-5.947,2.819-9.222,6.9-9.222
			c4.235,0,6.704,3.426,6.704,8.667C233.49,638.271,230.817,641.648,225.981,641.648z M228.45,619.679
			c-4.938-0.049-7.709,2.219-9.118,5.544h-0.153c0.153-0.756,0.101-1.461,0.153-2.269l0.047-1.107
			c0.051-1.109-0.653-1.713-1.713-1.713h-6.852v4.081h3.678v28.772h-3.629v3.729h12.901v-3.729h-4.083v-9.476
			c1.662,1.667,4.284,2.624,6.755,2.624c7.555,0,12.444-5.24,12.444-13.354C238.881,624.922,234.699,619.679,228.45,619.679z"/>
		<path fill="#FFFFFF" d="M247.646,630.514c0.755-3.98,3.326-6.653,6.904-6.653c4.281,0,6.045,3.428,6.247,6.653H247.646z
			 M254.348,619.679c-7.309,0-12.245,5.646-12.245,13.202c0,7.713,5.24,13.255,13.1,13.255c5.04,0,9.221-2.268,10.583-5.896
			l-3.93-2.066c-1.059,2.066-3.528,3.576-6.653,3.576c-4.636,0-7.306-3.274-7.709-7.657h18.342
			C266.136,625.272,262.51,619.63,254.348,619.679z"/>
		<path fill="#FFFFFF" d="M268.958,632.881c0,8.062,4.938,13.255,12.949,13.255c5.488,0,9.369-2.42,10.731-6.2l-4.284-1.814
			c-1.057,2.066-3.525,3.628-6.447,3.628c-4.991,0-7.51-3.675-7.51-8.868c0-4.936,2.42-8.868,7.409-8.868
			c2.366,0,4.282,0.909,5.189,2.017v3.125h4.833v-5.695c-2.217-2.47-5.589-3.829-9.976-3.829
			C273.539,619.63,268.958,625.827,268.958,632.881z"/>
		<path fill="#FFFFFF" d="M305.534,619.63c-5.895,0-9.621,2.52-9.621,6.953c0,10.129,15.164,6.553,15.164,12.346
			c0,2.065-2.015,3.074-5.237,3.074c-2.319,0-4.133-0.505-5.544-1.461v-3.275h-4.586v5.391c2.418,2.417,5.846,3.426,10.076,3.426
			c6.047,0,10.533-2.421,10.533-7.154c0-9.676-15.219-6.651-15.219-12.346c0-1.916,1.812-2.821,4.635-2.821
			c2.217,0,3.93,0.604,5.04,1.259v3.176h4.586v-6.047C313.195,620.587,310.271,619.63,305.534,619.63z"/>
	</g>
	<path fill="#001A71" d="M308.364,608.094c4.182,0,7.733-3.445,7.733-7.938c0-4.178-3.552-7.729-7.733-7.729
		c-4.489,0-8.041,3.552-8.041,7.729C300.323,604.648,303.875,608.094,308.364,608.094z"/>
</g>
<circle fill="#001A71" cx="514.66" cy="595.274" r="116.551"/>
<g>
	<path fill="#FFFFFF" d="M432.498,625.331c1.882,1.252,5.117,2.4,9.193,2.4c10.549,0,16.815-6.476,16.815-17.863v-52.123
		c0-2.296-1.253-3.552-3.552-3.552h-14.937v7.835h7.417v49.305c0,4.804-2.611,7.521-6.268,7.521c-2.508,0-4.808-0.626-6.687-1.671
		L432.498,625.331z"/>
	<path fill="#FFC700" d="M451.765,548.135c4.178,0,7.729-3.445,7.729-7.938c0-4.178-3.552-7.729-7.729-7.729
		c-4.492,0-8.044,3.552-8.044,7.729C443.721,544.689,447.272,548.135,451.765,548.135z"/>
	<path fill="#FFFFFF" d="M507.562,553.15c-10.653,0-16.61,5.64-19.639,12.848h-0.311c0.208-1.253,0.311-3.237,0.311-5.016v-3.237
		c0-2.296-1.252-3.552-3.548-3.552h-14.209v8.253h7.731v36.771h-7.731v7.832h27.323v-7.832h-8.521v-15.773
		c0-11.806,5.745-20.58,14.622-20.58c8.148,0,12.224,5.851,12.224,14.625v29.561h18.696v-7.832h-7.625v-23.608
		C526.887,561.923,519.471,553.15,507.562,553.15z"/>
	<path fill="#FFFFFF" d="M579.289,565.267l1.569-11.384c-1.252-0.421-2.61-0.732-4.285-0.732c-10.129,0-15.562,6.477-17.653,14.312
		h-0.312c0.103-1.569,0.312-3.658,0.312-5.434v-4.283c0-2.296-1.354-3.552-3.552-3.552h-14.305v8.567h7.726v36.456h-7.726v7.832
		h27.261v-7.832h-8.462v-14.73c0-11.071,4.491-20.159,13.998-20.159C575.948,564.327,577.516,564.745,579.289,565.267z"/>
	<g>
		<path fill="#FFFFFF" d="M478.2,619.63c-5.896,0-9.624,2.52-9.624,6.953c0,10.129,15.166,6.553,15.166,12.346
			c0,2.065-2.013,3.074-5.24,3.074c-2.318,0-4.13-0.505-5.541-1.461v-3.275h-4.586v5.391c2.418,2.417,5.844,3.426,10.077,3.426
			c6.047,0,10.531-2.421,10.531-7.154c0-9.676-15.217-6.651-15.217-12.346c0-1.916,1.813-2.821,4.637-2.821
			c2.214,0,3.93,0.604,5.037,1.259v3.176h4.586v-6.047C485.861,620.587,482.937,619.63,478.2,619.63z"/>
		<path fill="#FFFFFF" d="M506.517,641.648c-2.47,0-4.586-0.705-6.096-2.418v-5.895c0-5.947,2.819-9.222,6.9-9.222
			c4.235,0,6.704,3.426,6.704,8.667C514.025,638.271,511.353,641.648,506.517,641.648z M508.985,619.679
			c-4.938-0.049-7.709,2.219-9.118,5.544h-0.153c0.153-0.756,0.101-1.461,0.153-2.269l0.047-1.107
			c0.051-1.109-0.653-1.713-1.713-1.713h-6.852v4.081h3.678v28.772h-3.629v3.729H504.3v-3.729h-4.083v-9.476
			c1.662,1.667,4.284,2.624,6.755,2.624c7.555,0,12.444-5.24,12.444-13.354C519.416,624.922,515.234,619.679,508.985,619.679z"/>
		<path fill="#FFFFFF" d="M528.181,630.514c0.755-3.98,3.326-6.653,6.904-6.653c4.281,0,6.045,3.428,6.247,6.653H528.181z
			 M534.883,619.679c-7.309,0-12.245,5.646-12.245,13.202c0,7.713,5.24,13.255,13.1,13.255c5.04,0,9.221-2.268,10.583-5.896
			l-3.93-2.066c-1.059,2.066-3.528,3.576-6.653,3.576c-4.636,0-7.306-3.274-7.709-7.657h18.342
			C546.671,625.272,543.045,619.63,534.883,619.679z"/>
		<path fill="#FFFFFF" d="M549.493,632.881c0,8.062,4.938,13.255,12.949,13.255c5.488,0,9.369-2.42,10.731-6.2l-4.284-1.814
			c-1.057,2.066-3.525,3.628-6.447,3.628c-4.991,0-7.51-3.675-7.51-8.868c0-4.936,2.42-8.868,7.409-8.868
			c2.366,0,4.282,0.909,5.189,2.017v3.125h4.833v-5.695c-2.217-2.47-5.589-3.829-9.976-3.829
			C554.074,619.63,549.493,625.827,549.493,632.881z"/>
		<path fill="#FFFFFF" d="M586.069,619.63c-5.895,0-9.621,2.52-9.621,6.953c0,10.129,15.164,6.553,15.164,12.346
			c0,2.065-2.015,3.074-5.237,3.074c-2.319,0-4.133-0.505-5.544-1.461v-3.275h-4.586v5.391c2.418,2.417,5.846,3.426,10.076,3.426
			c6.047,0,10.533-2.421,10.533-7.154c0-9.676-15.219-6.651-15.219-12.346c0-1.916,1.812-2.821,4.635-2.821
			c2.217,0,3.93,0.604,5.04,1.259v3.176h4.586v-6.047C593.73,620.587,590.807,619.63,586.069,619.63z"/>
	</g>
	<path fill="#FFC700" d="M588.899,608.094c4.182,0,7.733-3.445,7.733-7.938c0-4.178-3.552-7.729-7.733-7.729
		c-4.489,0-8.041,3.552-8.041,7.729C580.858,604.648,584.41,608.094,588.899,608.094z"/>
</g>
</svg>
