<?xml version="1.0" encoding="utf-8"?>
<!-- Generator: Adobe Illustrator 16.0.0, SVG Export Plug-In . SVG Version: 6.00 Build 0)  -->
<!DOCTYPE svg PUBLIC "-//W3C//DTD SVG 1.1//EN" "http://www.w3.org/Graphics/SVG/1.1/DTD/svg11.dtd">
<svg version="1.1" id="Layer_1" xmlns="http://www.w3.org/2000/svg" xmlns:xlink="http://www.w3.org/1999/xlink" x="0px" y="0px"
	 width="1683.767px" height="1190.551px" viewBox="0 0 1683.767 1190.551" enable-background="new 0 0 1683.767 1190.551"
	 xml:space="preserve">
<g>
	<circle fill="#001A71" cx="1221.448" cy="337.975" r="52.441"/>
	<g>
		<path fill="#FFFFFF" d="M1186.524,358.327c0.848,0.562,2.303,1.08,4.137,1.08c4.748,0,7.566-2.914,7.566-8.037v-23.453
			c0-1.033-0.564-1.598-1.6-1.598h-6.719v3.525h3.336v22.184c0,2.162-1.174,3.383-2.818,3.383c-1.129,0-2.162-0.281-3.01-0.752
			L1186.524,358.327z M1195.595,323.592c1.881,0,3.479-1.549,3.479-3.57c0-1.881-1.598-3.479-3.479-3.479
			c-2.02,0-3.617,1.598-3.617,3.479C1191.978,322.043,1193.575,323.592,1195.595,323.592z"/>
		<path fill="#FFFFFF" d="M1219.491,325.85c-4.791,0-7.471,2.537-8.834,5.779h-0.141c0.094-0.564,0.141-1.457,0.141-2.256v-1.457
			c0-1.033-0.562-1.598-1.598-1.598h-6.393v3.713h3.479v16.545h-3.479v3.523h12.033v-3.523h-3.572v-7.098
			c0-5.311,2.584-9.26,6.578-9.26c3.666,0,5.5,2.633,5.5,6.58V350.1h8.412v-3.523h-3.432v-10.623
			C1228.187,329.797,1224.851,325.85,1219.491,325.85z"/>
		<path fill="#FFFFFF" d="M1252.573,331.301l0.705-5.123c-0.562-0.188-1.174-0.328-1.928-0.328c-4.559,0-7.002,2.912-7.943,6.438
			h-0.141c0.047-0.705,0.141-1.645,0.141-2.443v-1.928c0-1.033-0.609-1.598-1.598-1.598h-6.438v3.854h3.477v16.404h-3.477v3.523
			h12.268v-3.523h-3.809v-6.629c0-4.98,2.021-9.07,6.299-9.07C1251.069,330.877,1251.774,331.065,1252.573,331.301z"/>
		<path fill="#FFFFFF" d="M1256.897,350.571c1.881,0,3.479-1.551,3.479-3.572c0-1.879-1.598-3.477-3.479-3.477
			c-2.021,0-3.619,1.598-3.619,3.477C1253.278,349.02,1254.876,350.571,1256.897,350.571z"/>
	</g>
</g>
<g>
	<circle fill="#FFC700" cx="1350.507" cy="337.975" r="52.441"/>
	<g>
		<path fill="#FFFFFF" d="M1315.583,358.327c0.848,0.562,2.303,1.08,4.137,1.08c4.748,0,7.566-2.914,7.566-8.037v-23.453
			c0-1.033-0.564-1.598-1.6-1.598h-6.719v3.525h3.336v22.184c0,2.162-1.174,3.383-2.818,3.383c-1.129,0-2.162-0.281-3.01-0.752
			L1315.583,358.327z M1324.653,323.592c1.881,0,3.479-1.549,3.479-3.57c0-1.881-1.598-3.479-3.479-3.479
			c-2.02,0-3.617,1.598-3.617,3.479C1321.036,322.043,1322.634,323.592,1324.653,323.592z"/>
		<path fill="#FFFFFF" d="M1348.55,325.85c-4.791,0-7.471,2.537-8.834,5.779h-0.141c0.094-0.564,0.141-1.457,0.141-2.256v-1.457
			c0-1.033-0.562-1.598-1.598-1.598h-6.393v3.713h3.479v16.545h-3.479v3.523h12.033v-3.523h-3.572v-7.098
			c0-5.311,2.584-9.26,6.578-9.26c3.666,0,5.5,2.633,5.5,6.58V350.1h8.412v-3.523h-3.432v-10.623
			C1357.245,329.797,1353.909,325.85,1348.55,325.85z"/>
		<path fill="#FFFFFF" d="M1381.632,331.301l0.705-5.123c-0.562-0.188-1.174-0.328-1.928-0.328c-4.559,0-7.002,2.912-7.943,6.438
			h-0.141c0.047-0.705,0.141-1.645,0.141-2.443v-1.928c0-1.033-0.609-1.598-1.598-1.598h-6.438v3.854h3.477v16.404h-3.477v3.523
			h12.268v-3.523h-3.809v-6.629c0-4.98,2.021-9.07,6.299-9.07C1380.128,330.877,1380.833,331.065,1381.632,331.301z"/>
		<path fill="#FFFFFF" d="M1385.956,350.571c1.881,0,3.479-1.551,3.479-3.572c0-1.879-1.598-3.477-3.479-3.477
			c-2.021,0-3.619,1.598-3.619,3.477C1382.337,349.02,1383.935,350.571,1385.956,350.571z"/>
	</g>
</g>
<circle fill="#FFC700" cx="296.817" cy="359.622" r="166.252"/>
<g>
	<path fill="#FFFFFF" d="M179.62,402.495c2.684,1.785,7.299,3.424,13.113,3.424c15.047,0,23.986-9.236,23.986-25.48v-74.35
		c0-3.275-1.787-5.066-5.066-5.066h-21.307v11.176h10.58v70.33c0,6.852-3.725,10.727-8.939,10.727c-3.578,0-6.857-0.893-9.539-2.383
		L179.62,402.495z M207.103,292.379c5.959,0,11.025-4.914,11.025-11.322c0-5.959-5.066-11.025-11.025-11.025
		c-6.408,0-11.475,5.066-11.475,11.025C195.628,287.465,200.694,292.379,207.103,292.379z"/>
	<path fill="#FFFFFF" d="M286.694,299.534c-15.197,0-23.693,8.045-28.014,18.326h-0.443c0.297-1.787,0.443-4.617,0.443-7.154v-4.617
		c0-3.275-1.785-5.066-5.061-5.066h-20.268v11.771h11.027v52.451h-11.027v11.172h38.975v-11.172h-12.154v-22.5
		c0-16.84,8.195-29.355,20.857-29.355c11.623,0,17.436,8.346,17.436,20.861v42.166h26.67v-11.172h-10.877v-33.676
		C314.259,312.047,303.681,299.534,286.694,299.534z"/>
	<path fill="#FFFFFF" d="M389.007,316.817l2.238-16.238c-1.785-0.6-3.723-1.045-6.111-1.045c-14.449,0-22.199,9.238-25.182,20.414
		h-0.445c0.146-2.238,0.445-5.217,0.445-7.75v-6.109c0-3.275-1.932-5.066-5.066-5.066h-20.404v12.221h11.02v52.002h-11.02v11.172
		h38.885v-11.172h-12.07v-21.012c0-15.793,6.406-28.756,19.967-28.756C384.241,315.477,386.478,316.073,389.007,316.817z"/>
	<g>
		<path fill="#FFFFFF" d="M244.812,394.362c-8.41,0-13.729,3.594-13.729,9.918c0,14.449,21.633,9.348,21.633,17.611
			c0,2.945-2.871,4.385-7.475,4.385c-3.307,0-5.891-0.721-7.904-2.084v-4.672h-6.541v7.689c3.449,3.447,8.336,4.887,14.375,4.887
			c8.625,0,15.021-3.453,15.021-10.205c0-13.803-21.705-9.488-21.705-17.611c0-2.732,2.586-4.023,6.613-4.023
			c3.158,0,5.605,0.861,7.186,1.795v4.531h6.541v-8.627C255.739,395.727,251.567,394.362,244.812,394.362z"/>
		<path fill="#FFFFFF" d="M285.202,425.77c-3.523,0-6.541-1.006-8.695-3.449v-8.408c0-8.482,4.021-13.154,9.844-13.154
			c6.041,0,9.562,4.887,9.562,12.363C295.913,420.954,292.101,425.77,285.202,425.77z M288.724,394.432
			c-7.045-0.07-10.996,3.164-13.006,7.908h-0.219c0.219-1.078,0.143-2.084,0.219-3.236l0.066-1.58
			c0.072-1.582-0.932-2.443-2.443-2.443h-9.773v5.822h5.246v41.041h-5.176v5.32h18.402v-5.32h-5.824v-13.516
			c2.371,2.377,6.111,3.742,9.635,3.742c10.777,0,17.752-7.475,17.752-19.049C303.603,401.911,297.638,394.432,288.724,394.432z"/>
		<path fill="#FFFFFF" d="M316.104,409.887c1.076-5.678,4.744-9.49,9.848-9.49c6.107,0,8.623,4.889,8.912,9.49H316.104z
			 M325.665,394.432c-10.426,0-17.467,8.053-17.467,18.832c0,11.002,7.475,18.906,18.686,18.906c7.189,0,13.152-3.234,15.096-8.41
			l-5.605-2.947c-1.51,2.947-5.033,5.102-9.49,5.102c-6.613,0-10.422-4.672-10.996-10.924h26.162
			C342.479,402.411,337.308,394.362,325.665,394.432z"/>
		<path fill="#FFFFFF" d="M346.505,413.264c0,11.5,7.043,18.906,18.471,18.906c7.83,0,13.365-3.451,15.309-8.844l-6.111-2.588
			c-1.508,2.947-5.029,5.176-9.197,5.176c-7.119,0-10.711-5.242-10.711-12.65c0-7.041,3.451-12.65,10.568-12.65
			c3.375,0,6.107,1.297,7.402,2.877v4.457h6.895v-8.123c-3.162-3.523-7.973-5.463-14.23-5.463
			C353.04,394.362,346.505,403.202,346.505,413.264z"/>
		<path fill="#FFFFFF" d="M398.679,394.362c-8.408,0-13.725,3.594-13.725,9.918c0,14.449,21.631,9.348,21.631,17.611
			c0,2.945-2.873,4.385-7.471,4.385c-3.309,0-5.895-0.721-7.908-2.084v-4.672h-6.541v7.689c3.449,3.447,8.338,4.887,14.373,4.887
			c8.625,0,15.025-3.453,15.025-10.205c0-13.803-21.709-9.488-21.709-17.611c0-2.732,2.586-4.023,6.611-4.023
			c3.162,0,5.605,0.861,7.189,1.795v4.531h6.541v-8.627C409.606,395.727,405.437,394.362,398.679,394.362z"/>
	</g>
	<path fill="#FFFFFF" d="M402.716,377.907c5.965,0,11.031-4.914,11.031-11.322c0-5.959-5.066-11.025-11.031-11.025
		c-6.404,0-11.471,5.066-11.471,11.025C391.245,372.993,396.312,377.907,402.716,377.907z"/>
</g>
<g>
	<path fill="#001A71" d="M724.241,402.495c2.682,1.785,7.297,3.424,13.113,3.424c15.047,0,23.984-9.236,23.984-25.48v-74.35
		c0-3.275-1.787-5.066-5.066-5.066h-21.305v11.176h10.578v70.33c0,6.852-3.725,10.727-8.938,10.727
		c-3.578,0-6.857-0.893-9.541-2.383L724.241,402.495z M751.722,292.379c5.959,0,11.025-4.914,11.025-11.322
		c0-5.959-5.066-11.025-11.025-11.025c-6.408,0-11.475,5.066-11.475,11.025C740.247,287.465,745.313,292.379,751.722,292.379z"/>
	<path fill="#001A71" d="M831.313,299.534c-15.197,0-23.691,8.045-28.014,18.326h-0.443c0.297-1.787,0.443-4.617,0.443-7.154v-4.617
		c0-3.275-1.783-5.066-5.061-5.066h-20.266v11.771h11.025v52.451h-11.025v11.172h38.975v-11.172h-12.156v-22.5
		c0-16.84,8.195-29.355,20.859-29.355c11.621,0,17.434,8.346,17.434,20.861v42.166h26.672v-11.172h-10.879v-33.676
		C858.878,312.047,848.302,299.534,831.313,299.534z"/>
	<path fill="#001A71" d="M933.628,316.817l2.236-16.238c-1.785-0.6-3.723-1.045-6.111-1.045c-14.449,0-22.197,9.238-25.18,20.414
		h-0.447c0.146-2.238,0.447-5.217,0.447-7.75v-6.109c0-3.275-1.934-5.066-5.068-5.066h-20.404v12.221h11.02v52.002h-11.02v11.172
		h38.887v-11.172h-12.07v-21.012c0-15.793,6.404-28.756,19.967-28.756C928.86,315.477,931.097,316.073,933.628,316.817z"/>
	<g>
		<path fill="#001A71" d="M789.431,394.362c-8.41,0-13.727,3.594-13.727,9.918c0,14.449,21.633,9.348,21.633,17.611
			c0,2.945-2.871,4.385-7.475,4.385c-3.307,0-5.893-0.721-7.906-2.084v-4.672h-6.541v7.689c3.451,3.447,8.338,4.887,14.375,4.887
			c8.627,0,15.023-3.453,15.023-10.205c0-13.803-21.705-9.488-21.705-17.611c0-2.732,2.584-4.023,6.611-4.023
			c3.16,0,5.605,0.861,7.188,1.795v4.531h6.541v-8.627C800.358,395.727,796.188,394.362,789.431,394.362z"/>
		<path fill="#001A71" d="M829.823,425.77c-3.525,0-6.543-1.006-8.697-3.449v-8.408c0-8.482,4.021-13.154,9.846-13.154
			c6.041,0,9.561,4.887,9.561,12.363C840.532,420.954,836.72,425.77,829.823,425.77z M833.343,394.432
			c-7.045-0.07-10.994,3.164-13.006,7.908h-0.217c0.217-1.078,0.141-2.084,0.217-3.236l0.068-1.58
			c0.07-1.582-0.934-2.443-2.443-2.443h-9.773v5.822h5.246v41.041h-5.176v5.32h18.402v-5.32h-5.826v-13.516
			c2.373,2.377,6.111,3.742,9.635,3.742c10.779,0,17.752-7.475,17.752-19.049C848.222,401.911,842.259,394.432,833.343,394.432z"/>
		<path fill="#001A71" d="M860.726,409.887c1.074-5.678,4.742-9.49,9.848-9.49c6.105,0,8.623,4.889,8.912,9.49H860.726z
			 M870.284,394.432c-10.424,0-17.467,8.053-17.467,18.832c0,11.002,7.475,18.906,18.686,18.906c7.189,0,13.154-3.234,15.098-8.41
			l-5.605-2.947c-1.51,2.947-5.035,5.102-9.492,5.102c-6.611,0-10.422-4.672-10.994-10.924h26.162
			C887.101,402.411,881.929,394.362,870.284,394.432z"/>
		<path fill="#001A71" d="M891.124,413.264c0,11.5,7.043,18.906,18.471,18.906c7.832,0,13.367-3.451,15.309-8.844l-6.111-2.588
			c-1.508,2.947-5.027,5.176-9.197,5.176c-7.117,0-10.709-5.242-10.709-12.65c0-7.041,3.449-12.65,10.568-12.65
			c3.373,0,6.105,1.297,7.4,2.877v4.457h6.896v-8.123c-3.162-3.523-7.973-5.463-14.232-5.463
			C897.661,394.362,891.124,403.202,891.124,413.264z"/>
		<path fill="#001A71" d="M943.298,394.362c-8.408,0-13.725,3.594-13.725,9.918c0,14.449,21.633,9.348,21.633,17.611
			c0,2.945-2.873,4.385-7.473,4.385c-3.309,0-5.893-0.721-7.906-2.084v-4.672h-6.543v7.689c3.451,3.447,8.338,4.887,14.373,4.887
			c8.625,0,15.025-3.453,15.025-10.205c0-13.803-21.707-9.488-21.707-17.611c0-2.732,2.584-4.023,6.611-4.023
			c3.162,0,5.605,0.861,7.189,1.795v4.531h6.541v-8.627C954.226,395.727,950.058,394.362,943.298,394.362z"/>
	</g>
	<path fill="#001A71" d="M947.337,377.907c5.963,0,11.031-4.914,11.031-11.322c0-5.959-5.068-11.025-11.031-11.025
		c-6.406,0-11.473,5.066-11.473,11.025C935.864,372.993,940.931,377.907,947.337,377.907z"/>
</g>
<text transform="matrix(1 0 0 1 90.5498 99.2349)" font-family="'AkzidenzGroteskBQ-Reg'" font-size="24.4274">OFFICIAL LOGO</text>
<text transform="matrix(1 0 0 1 90.5498 139.7339)" font-family="'AkzidenzGroteskBQ-Reg'" font-size="24.4274">in circle</text>
<text transform="matrix(1 0 0 1 90.5498 711.2056)" font-family="'AkzidenzGroteskBQ-Reg'" font-size="24.4274">landscape format</text>
<text transform="matrix(1 0 0 1 728.0186 211.4321)" font-family="'AkzidenzGroteskBQ-Reg'" font-size="24.4274">loose</text>
<text transform="matrix(1 0 0 1 1169.0068 241.4512)" font-family="'AkzidenzGroteskBQ-Reg'" font-size="24.4274">wordmark</text>
<g>
	<g>
		<path fill="#001A71" d="M179.62,918.384c2.402,1.599,6.535,3.065,11.742,3.065c13.475,0,21.479-8.271,21.479-22.816v-66.578
			c0-2.934-1.602-4.537-4.537-4.537h-19.078v10.008h9.473v62.979c0,6.136-3.336,9.605-8.004,9.605c-3.203,0-6.141-0.8-8.543-2.134
			L179.62,918.384z M204.228,819.779c5.336,0,9.873-4.4,9.873-10.139c0-5.336-4.537-9.873-9.873-9.873
			c-5.738,0-10.275,4.537-10.275,9.873C193.952,815.378,198.489,819.779,204.228,819.779z"/>
		<path fill="#001A71" d="M275.501,826.185c-13.609,0-21.215,7.204-25.086,16.411h-0.396c0.266-1.601,0.396-4.135,0.396-6.406
			v-4.135c0-2.934-1.598-4.537-4.531-4.537h-18.148v10.541h9.873v46.969h-9.873v10.004h34.902v-10.004h-10.887v-20.148
			c0-15.079,7.34-26.287,18.68-26.287c10.406,0,15.611,7.474,15.611,18.681v37.759h23.883v-10.004h-9.74v-30.156
			C300.185,837.391,290.714,826.185,275.501,826.185z"/>
		<path fill="#001A71" d="M367.12,841.663l2.002-14.541c-1.598-0.537-3.332-0.937-5.473-0.937c-12.938,0-19.877,8.272-22.547,18.28
			h-0.4c0.131-2.004,0.4-4.671,0.4-6.939v-5.471c0-2.934-1.732-4.537-4.539-4.537h-18.271v10.943h9.869v46.566h-9.869v10.004h34.822
			v-10.004h-10.809v-18.815c0-14.143,5.734-25.75,17.881-25.75C362.851,840.462,364.854,840.996,367.12,841.663z"/>
		<path fill="#001A71" d="M379.396,896.366c5.34,0,9.879-4.4,9.879-10.139c0-5.336-4.539-9.872-9.879-9.872
			c-5.736,0-10.273,4.536-10.273,9.872C369.122,891.965,373.659,896.366,379.396,896.366z"/>
	</g>
	<g>
		<path fill="#001A71" d="M456.751,826.165c-15.934,0-26.006,6.81-26.006,18.792c0,27.376,40.986,17.71,40.986,33.368
			c0,5.58-5.439,8.306-14.162,8.306c-6.264,0-11.164-1.365-14.979-3.948v-8.852h-12.393v14.57
			c6.537,6.529,15.797,9.257,27.234,9.257c16.346,0,28.465-6.541,28.465-19.333c0-26.152-41.123-17.979-41.123-33.368
			c0-5.178,4.895-7.624,12.525-7.624c5.988,0,10.619,1.632,13.617,3.4v8.586h12.395v-16.345
			C477.456,828.751,469.556,826.165,456.751,826.165z"/>
		<path fill="#001A71" d="M533.282,885.674c-6.68,0-12.396-1.907-16.479-6.536v-15.931c0-16.073,7.619-24.923,18.656-24.923
			c11.443,0,18.113,9.259,18.113,23.423C553.573,876.547,546.349,885.674,533.282,885.674z M539.952,826.298
			c-13.35-0.134-20.83,5.994-24.643,14.982h-0.41c0.41-2.041,0.266-3.948,0.41-6.131l0.131-2.993
			c0.131-2.998-1.771-4.631-4.631-4.631h-18.518v11.031h9.939v77.759h-9.805v10.081h34.865v-10.081h-11.039v-25.606
			c4.496,4.502,11.578,7.089,18.254,7.089c20.424,0,33.635-14.162,33.635-36.091C568.142,840.466,556.845,826.298,539.952,826.298z"
			/>
		<path fill="#001A71" d="M591.833,855.582c2.035-10.759,8.984-17.982,18.658-17.982c11.566,0,16.338,9.263,16.885,17.982H591.833z
			 M609.942,826.298c-19.75,0-33.094,15.257-33.094,35.68c0,20.845,14.162,35.82,35.404,35.82c13.621,0,24.922-6.126,28.604-15.933
			l-10.619-5.585c-2.861,5.585-9.541,9.666-17.984,9.666c-12.527,0-19.746-8.852-20.832-20.697h49.568
			C641.804,841.415,632.005,826.165,609.942,826.298z"/>
		<path fill="#001A71" d="M649.427,861.978c0,21.789,13.344,35.82,34.996,35.82c14.84,0,25.326-6.537,29.004-16.755l-11.578-4.903
			c-2.857,5.583-9.525,9.807-17.426,9.807c-13.484,0-20.289-9.933-20.289-23.969c0-13.339,6.535-23.968,20.023-23.968
			c6.391,0,11.568,2.456,14.02,5.45v8.445h13.068v-15.392c-5.992-6.674-15.105-10.35-26.967-10.35
			C661.813,826.165,649.427,842.913,649.427,861.978z"/>
		<path fill="#001A71" d="M748.28,826.165c-15.932,0-26.004,6.81-26.004,18.792c0,27.376,40.986,17.71,40.986,33.368
			c0,5.58-5.443,8.306-14.158,8.306c-6.268,0-11.164-1.365-14.98-3.948v-8.852h-12.396v14.57c6.539,6.529,15.799,9.257,27.232,9.257
			c16.342,0,28.469-6.541,28.469-19.333c0-26.152-41.129-17.979-41.129-33.368c0-5.178,4.896-7.624,12.527-7.624
			c5.99,0,10.621,1.632,13.621,3.4v8.586h12.393v-16.345C768.983,828.751,761.087,826.165,748.28,826.165z"/>
	</g>
</g>
</svg>
