<?xml version="1.0" encoding="utf-8"?>
<!-- Generator: Adobe Illustrator 16.0.0, SVG Export Plug-In . SVG Version: 6.00 Build 0)  -->
<!DOCTYPE svg PUBLIC "-//W3C//DTD SVG 1.1//EN" "http://www.w3.org/Graphics/SVG/1.1/DTD/svg11.dtd">
<svg version="1.1" id="Layer_1" xmlns="http://www.w3.org/2000/svg" xmlns:xlink="http://www.w3.org/1999/xlink" x="0px" y="0px"
	 width="1683.767px" height="1190.551px" viewBox="0 0 1683.767 1190.551" enable-background="new 0 0 1683.767 1190.551"
	 xml:space="preserve">
<path d="M1023.875,245.876c-38.945,0-70.519,31.571-70.519,70.518c0,38.945,31.573,70.516,70.519,70.516
	c38.943,0,70.516-31.57,70.516-70.516C1094.391,277.447,1062.818,245.876,1023.875,245.876z M992.649,334.404
	c0,6.889-3.791,10.807-10.175,10.807c-2.467,0-4.423-0.695-5.563-1.452l1.2-4.932c1.141,0.634,2.529,1.011,4.048,1.011
	c2.212,0,3.79-1.641,3.79-4.548v-29.83h-4.485v-4.741h9.033c1.393,0,2.152,0.759,2.152,2.148V334.404z M989.109,297.053
	c-2.716,0-4.865-2.083-4.865-4.802c0-2.528,2.149-4.677,4.865-4.677c2.528,0,4.677,2.148,4.677,4.677
	C993.786,294.97,991.638,297.053,989.109,297.053z M1037.549,332.697h-11.312v-17.886c0-5.308-2.466-8.848-7.396-8.848
	c-5.37,0-8.846,5.311-8.846,12.451v9.545h4.804v4.737h-16.181v-4.737h4.679v-22.248h-4.679v-4.993h8.597
	c1.392,0,2.147,0.759,2.147,2.148v1.96c0,1.073-0.062,2.273-0.188,3.032h0.188c1.833-4.359,5.437-7.771,11.879-7.771
	c7.207,0,11.692,5.308,11.692,13.586v14.285h4.615V332.697z M1062.441,306.849c-5.751,0-8.471,5.499-8.471,12.196v8.915h5.122v4.737
	h-16.496v-4.737h4.675V305.9h-4.675v-5.182h8.656c1.33,0,2.148,0.759,2.148,2.148v2.593c0,1.073-0.127,2.337-0.189,3.284h0.189
	c1.266-4.74,4.552-8.655,10.681-8.655c1.015,0,1.836,0.188,2.593,0.44l-0.949,6.89
	C1064.652,307.101,1063.705,306.849,1062.441,306.849z M1071.541,333.33c-2.718,0-4.866-2.086-4.866-4.805
	c0-2.525,2.148-4.675,4.866-4.675c2.528,0,4.679,2.149,4.679,4.675C1076.22,331.244,1074.069,333.33,1071.541,333.33z"/>
<g>
	<g>
		<g>
			<path d="M859.9,496.797c-14.181,0-23.147,6.061-23.147,16.723c0,24.359,36.475,15.756,36.475,29.688
				c0,4.971-4.845,7.396-12.601,7.396c-5.576,0-9.937-1.213-13.331-3.514v-7.878h-11.024v12.97
				c5.814,5.814,14.056,8.241,24.235,8.241c14.539,0,25.324-5.82,25.324-17.215c0-23.264-36.596-15.992-36.596-29.688
				c0-4.604,4.362-6.785,11.148-6.785c5.329,0,9.453,1.455,12.118,3.032v7.634h11.027v-14.543
				C878.316,499.101,871.29,496.797,859.9,496.797z"/>
			<path d="M927.994,549.754c-5.939,0-11.03-1.695-14.663-5.816v-14.18c0-14.3,6.785-22.171,16.602-22.171
				c10.179,0,16.113,8.237,16.113,20.838C946.046,541.632,939.623,549.754,927.994,549.754z M933.928,496.916
				c-11.873-0.119-18.539,5.336-21.93,13.335h-0.367c0.367-1.817,0.244-3.517,0.367-5.455l0.12-2.667
				c0.12-2.662-1.576-4.119-4.121-4.119h-16.477v9.816h8.843v69.196h-8.725v8.969h31.022v-8.969h-9.818v-22.786
				c4.002,4.003,10.306,6.303,16.239,6.303c18.179,0,29.932-12.601,29.932-32.114C959.014,509.521,948.956,496.916,933.928,496.916z
				"/>
			<path d="M980.089,522.974c1.815-9.574,7.998-15.995,16.597-15.995c10.305,0,14.547,8.238,15.033,15.995H980.089z
				 M996.205,496.916c-17.57,0-29.445,13.575-29.445,31.752c0,18.546,12.6,31.871,31.505,31.871c12.117,0,22.177-5.45,25.445-14.175
				l-9.447-4.97c-2.544,4.97-8.483,8.604-15.998,8.604c-11.145,0-17.567-7.881-18.541-18.423h44.107
				C1024.562,510.373,1015.834,496.797,996.205,496.916z"/>
			<path d="M1031.339,528.668c0,19.391,11.875,31.871,31.145,31.871c13.207,0,22.537-5.815,25.808-14.906l-10.299-4.363
				c-2.547,4.97-8.481,8.729-15.509,8.729c-12,0-18.06-8.849-18.06-21.331c0-11.875,5.816-21.328,17.815-21.328
				c5.696,0,10.3,2.182,12.481,4.848v7.515h11.631v-13.694c-5.326-5.935-13.45-9.211-23.992-9.211
				C1042.368,496.797,1031.339,511.704,1031.339,528.668z"/>
			<path d="M1119.305,496.797c-14.178,0-23.146,6.061-23.146,16.723c0,24.359,36.474,15.756,36.474,29.688
				c0,4.971-4.847,7.396-12.601,7.396c-5.574,0-9.936-1.213-13.329-3.514v-7.878h-11.024v12.97
				c5.813,5.814,14.057,8.241,24.23,8.241c14.545,0,25.329-5.82,25.329-17.215c0-23.264-36.596-15.992-36.596-29.688
				c0-4.604,4.361-6.785,11.147-6.785c5.333,0,9.453,1.455,12.116,3.032v7.634h11.03v-14.543
				C1137.724,499.101,1130.698,496.797,1119.305,496.797z"/>
		</g>
	</g>
	<g>
		<path d="M613.29,580.536c2.183,1.454,5.937,2.788,10.661,2.788c12.239,0,19.512-7.513,19.512-20.724v-60.468
			c0-2.664-1.456-4.121-4.121-4.121h-17.329v9.088h8.605v57.201c0,5.569-3.033,8.722-7.271,8.722c-2.908,0-5.578-0.726-7.76-1.937
			L613.29,580.536z M636.678,490.987c4.846,0,8.966-3.999,8.966-9.215c0-4.845-4.12-8.966-8.966-8.966
			c-5.216,0-9.337,4.121-9.337,8.966C627.341,486.988,631.462,490.987,636.678,490.987z"/>
		<path d="M696.966,496.801c-12.361,0-19.269,6.545-22.783,14.906h-0.359c0.238-1.455,0.359-3.759,0.359-5.821v-3.753
			c0-2.664-1.451-4.121-4.117-4.121h-16.482v9.575h8.967v42.656h-8.967v9.085h31.021v-9.085h-9.209v-18.302
			c0-13.693,6.665-23.872,16.965-23.872c9.453,0,14.18,6.787,14.18,16.97v34.289h21.689v-9.085h-8.848v-27.389
			C719.382,506.979,710.778,496.801,696.966,496.801z"/>
		<path d="M779.99,510.855l1.818-13.204c-1.453-0.487-3.031-0.851-4.971-0.851c-11.753,0-18.053,7.515-20.479,16.603h-0.361
			c0.117-1.819,0.361-4.24,0.361-6.304v-4.967c0-2.664-1.573-4.121-4.119-4.121h-16.599v9.937h8.963v42.295h-8.963v9.085h31.625
			v-9.085h-9.816v-17.089c0-12.845,5.213-23.387,16.239-23.387C776.112,509.768,777.93,510.252,779.99,510.855z"/>
		<path d="M791.137,560.543c4.85,0,8.971-3.998,8.971-9.213c0-4.845-4.121-8.964-8.971-8.964c-5.209,0-9.328,4.119-9.328,8.964
			C781.809,556.545,785.928,560.543,791.137,560.543z"/>
	</g>
</g>
<g>
	<path d="M356.713,458.739c-5.907,0-10.152,4.413-11.398,10.984h21.713C366.693,464.397,363.781,458.739,356.713,458.739z"/>
	<path d="M310.877,459.157c-6.74,0-11.395,5.407-11.395,15.226v9.732c2.494,2.827,5.986,3.992,10.064,3.992
		c7.984,0,12.397-5.575,12.397-14.641C321.944,464.813,317.868,459.157,310.877,459.157z"/>
	<path d="M322.993,219.119c-106.276,0-192.428,86.152-192.428,192.426c0,106.275,86.151,192.428,192.428,192.428
		c106.273,0,192.424-86.152,192.424-192.428C515.417,305.271,429.267,219.119,322.993,219.119z M445.562,406.843
		c6.903,0,12.768,5.864,12.768,12.761c0,7.417-5.864,13.104-12.768,13.104c-7.413,0-13.277-5.688-13.277-13.104
		C432.284,412.707,438.148,406.843,445.562,406.843z M249.535,418.053h12.763v-60.709h-12.763V343.72h23.458
		c3.791,0,5.856,2.073,5.856,5.864v5.344c0,2.937-0.169,6.212-0.513,8.28h0.513c5.001-11.899,14.834-21.211,32.424-21.211
		c19.661,0,31.904,14.483,31.904,37.078v38.978h12.59v12.931h-30.869V382.18c0-14.486-6.727-24.146-20.18-24.146
		c-14.656,0-24.142,14.486-24.142,33.978v26.042h14.067v12.931h-45.109V418.053z M230.283,435.639
		c0,18.801-10.347,29.491-27.763,29.491c-6.729,0-12.071-1.896-15.178-3.963l3.273-13.452c3.104,1.725,6.899,2.758,11.041,2.758
		c6.036,0,10.347-4.485,10.347-12.416v-81.402h-12.246V343.72h24.662c3.795,0,5.863,2.073,5.863,5.864V435.639z M219.152,333.717
		c-7.418,0-13.281-5.688-13.281-13.105c0-6.896,5.863-12.761,13.281-12.761c6.896,0,12.761,5.864,12.761,12.761
		C231.913,328.028,226.049,333.717,219.152,333.717z M263.213,495.429c-6.989,0-12.645-1.666-16.638-5.655v-8.9h7.571v5.407
		c2.33,1.578,5.321,2.412,9.148,2.412c5.328,0,8.651-1.666,8.651-5.075c0-9.564-25.038-3.66-25.038-20.384
		c0-7.319,6.155-11.479,15.889-11.479c7.82,0,12.648,1.58,16.223,4.16v9.984h-7.57v-5.244c-1.829-1.081-4.662-2.078-8.316-2.078
		c-4.662,0-7.655,1.494-7.655,4.657c0,9.402,25.122,4.408,25.122,20.384C280.6,491.433,273.196,495.429,263.213,495.429z
		 M310.297,495.515c-4.078,0-8.406-1.58-11.15-4.331v15.644h6.74v6.158h-21.299v-6.158h5.99v-47.502h-6.072v-6.739h11.312
		c1.75,0,2.912,0.997,2.828,2.828l-0.077,1.829c-0.088,1.333,0,2.498-0.253,3.745h0.253c2.326-5.49,6.899-9.234,15.054-9.152
		c10.317,0,17.221,8.655,17.221,21.631C330.844,486.863,322.771,495.515,310.297,495.515z M375.344,475.631h-30.28
		c0.665,7.236,5.073,12.644,12.728,12.644c5.158,0,9.236-2.493,10.984-5.905l6.488,3.412c-2.25,5.99-9.152,9.733-17.473,9.733
		c-12.977,0-21.627-9.148-21.627-21.883c0-12.476,8.148-21.796,20.216-21.796C369.855,451.754,375.842,461.07,375.344,475.631z
		 M401.88,495.515c-13.228,0-21.379-8.572-21.379-21.883c0-11.646,7.563-21.878,21.29-21.878c7.243,0,12.812,2.245,16.472,6.323
		v9.401h-7.98v-5.158c-1.499-1.829-4.662-3.33-8.568-3.33c-8.237,0-12.231,6.492-12.231,14.642c0,8.575,4.157,14.643,12.397,14.643
		c4.824,0,8.899-2.579,10.645-5.991l7.074,2.996C417.349,491.521,410.942,495.515,401.88,495.515z M397.62,393.733v24.319h13.971
		v12.931h-45.007v-12.931h12.755v-60.188h-12.755V343.72h23.617c3.629,0,5.864,2.073,5.864,5.864v7.07
		c0,2.933-0.347,6.38-0.516,8.971h0.516c3.451-12.936,12.422-23.628,29.146-23.628c2.765,0,5.007,0.516,7.073,1.209l-2.59,18.795
		c-2.928-0.861-5.516-1.551-8.964-1.551C405.035,360.45,397.62,375.454,397.62,393.733z M441.305,495.429
		c-6.985,0-12.644-1.666-16.636-5.655v-8.9h7.57v5.407c2.331,1.578,5.324,2.412,9.153,2.412c5.321,0,8.647-1.666,8.647-5.075
		c0-9.564-25.037-3.66-25.037-20.384c0-7.319,6.154-11.479,15.886-11.479c7.821,0,12.647,1.58,16.224,4.16v9.984h-7.57v-5.244
		c-1.833-1.081-4.661-2.078-8.321-2.078c-4.659,0-7.651,1.494-7.651,4.657c0,9.402,25.126,4.408,25.126,20.384
		C458.695,491.433,451.287,495.429,441.305,495.429z"/>
</g>
<g>
	<path d="M613.29,357.206c2.496,1.663,6.791,3.186,12.206,3.186c14.006,0,22.324-8.596,22.324-23.716v-69.203
		c0-3.05-1.663-4.717-4.716-4.717h-19.83v10.402h9.846v65.461c0,6.38-3.467,9.985-8.318,9.985c-3.33,0-6.383-0.829-8.881-2.216
		L613.29,357.206z M638.868,254.71c5.547,0,10.264-4.574,10.264-10.539c0-5.547-4.717-10.261-10.264-10.261
		c-5.964,0-10.68,4.714-10.68,10.261C628.188,250.136,632.904,254.71,638.868,254.71z"/>
	<path d="M712.953,261.369c-14.146,0-22.052,7.489-26.075,17.057h-0.413c0.276-1.662,0.413-4.296,0.413-6.657v-4.296
		c0-3.05-1.66-4.717-4.711-4.717h-18.863v10.956h10.263v48.821h-10.263v10.399h36.277v-10.399h-11.314v-20.942
		c0-15.674,7.629-27.324,19.416-27.324c10.817,0,16.228,7.769,16.228,19.417v39.249h24.826v-10.399H738.61v-31.346
		C738.61,273.017,728.766,261.369,712.953,261.369z"/>
	<path d="M808.188,277.458l2.082-15.115c-1.662-0.56-3.466-0.974-5.689-0.974c-13.449,0-20.66,8.601-23.438,19.001h-0.416
		c0.137-2.083,0.416-4.854,0.416-7.212v-5.686c0-3.05-1.799-4.717-4.717-4.717h-18.992v11.374h10.257v48.403h-10.257v10.399h36.196
		v-10.399h-11.235v-19.559c0-14.699,5.961-26.765,18.585-26.765C803.75,276.21,805.832,276.764,808.188,277.458z"/>
	<g>
		<path d="M673.968,349.637c-7.828,0-12.775,3.344-12.775,9.232c0,13.449,20.136,8.701,20.136,16.391
			c0,2.742-2.673,4.081-6.958,4.081c-3.077,0-5.484-0.67-7.359-1.938v-4.35h-6.088v7.157c3.213,3.209,7.761,4.549,13.381,4.549
			c8.029,0,13.983-3.215,13.983-9.499c0-12.849-20.203-8.832-20.203-16.391c0-2.546,2.405-3.746,6.153-3.746
			c2.941,0,5.218,0.802,6.69,1.671v4.218h6.088v-8.031C684.14,350.906,680.259,349.637,673.968,349.637z"/>
		<path d="M711.565,378.871c-3.281,0-6.09-0.938-8.095-3.209v-7.827c0-7.897,3.743-12.244,9.165-12.244
			c5.623,0,8.898,4.546,8.898,11.506C721.534,374.388,717.985,378.871,711.565,378.871z M714.842,349.7
			c-6.558-0.063-10.233,2.946-12.106,7.361h-0.201c0.201-1.004,0.131-1.938,0.201-3.013l0.064-1.47
			c0.065-1.472-0.869-2.274-2.274-2.274h-9.097v5.42h4.883v38.201h-4.818v4.953h17.13v-4.953H703.2v-12.581
			c2.209,2.211,5.688,3.482,8.967,3.482c10.034,0,16.524-6.957,16.524-17.73C728.691,356.662,723.142,349.7,714.842,349.7z"/>
		<path d="M740.33,364.088c1-5.285,4.414-8.836,9.165-8.836c5.685,0,8.027,4.552,8.296,8.836H740.33z M749.228,349.7
			c-9.703,0-16.259,7.495-16.259,17.53c0,10.24,6.957,17.597,17.392,17.597c6.692,0,12.245-3.01,14.054-7.827l-5.217-2.744
			c-1.406,2.744-4.688,4.748-8.837,4.748c-6.152,0-9.699-4.348-10.232-10.166h24.352C764.88,357.127,760.066,349.637,749.228,349.7z
			"/>
		<path d="M768.625,367.23c0,10.702,6.555,17.597,17.192,17.597c7.29,0,12.442-3.212,14.249-8.23l-5.688-2.409
			c-1.403,2.742-4.68,4.816-8.561,4.816c-6.625,0-9.968-4.879-9.968-11.773c0-6.556,3.211-11.776,9.838-11.776
			c3.139,0,5.682,1.208,6.888,2.679v4.149h6.419v-7.561c-2.943-3.28-7.421-5.085-13.248-5.085
			C774.709,349.637,768.625,357.865,768.625,367.23z"/>
		<path d="M817.188,349.637c-7.827,0-12.774,3.344-12.774,9.232c0,13.449,20.135,8.701,20.135,16.391
			c0,2.742-2.674,4.081-6.955,4.081c-3.08,0-5.484-0.67-7.359-1.938v-4.35h-6.09v7.157c3.212,3.209,7.762,4.549,13.378,4.549
			c8.028,0,13.985-3.215,13.985-9.499c0-12.849-20.204-8.832-20.204-16.391c0-2.546,2.405-3.746,6.153-3.746
			c2.943,0,5.218,0.802,6.692,1.671v4.218h6.089v-8.031C827.36,350.906,823.48,349.637,817.188,349.637z"/>
	</g>
	<path d="M820.948,334.32c5.55,0,10.268-4.575,10.268-10.539c0-5.548-4.718-10.265-10.268-10.265
		c-5.963,0-10.679,4.717-10.679,10.265C810.27,329.745,814.985,334.32,820.948,334.32z"/>
</g>
<text transform="matrix(1 0 0 1 90.5498 99.2344)" font-family="'AkzidenzGroteskBQ-Reg'" font-size="24.4274">OFFICIAL LOGO</text>
<text transform="matrix(1 0 0 1 90.5498 139.7334)" font-family="'AkzidenzGroteskBQ-Reg'" font-size="24.4274">black and white version</text>
</svg>
