<?xml version="1.0" encoding="utf-8"?>
<!-- Generator: Adobe Illustrator 16.0.0, SVG Export Plug-In . SVG Version: 6.00 Build 0)  -->
<!DOCTYPE svg PUBLIC "-//W3C//DTD SVG 1.1//EN" "http://www.w3.org/Graphics/SVG/1.1/DTD/svg11.dtd">
<svg version="1.1" id="Layer_1" xmlns="http://www.w3.org/2000/svg" xmlns:xlink="http://www.w3.org/1999/xlink" x="0px" y="0px"
	 width="1683.767px" height="1190.551px" viewBox="0 0 1683.767 1190.551" enable-background="new 0 0 1683.767 1190.551"
	 xml:space="preserve">
<rect x="857.041" y="79.402" fill="#001A71" width="733.846" height="631.803"/>
<g>
	<text transform="matrix(1 0 0 1 1104.2246 651.3809)" fill="#FFFFFF" font-family="'Archia-Regular'" font-size="30.4927"> Eyewear for Little Big Kids</text>
</g>
<g>
	<path fill="#FFC700" d="M1163.754,533.109c4.006,2.666,10.897,5.113,19.584,5.113c22.473,0,35.818-13.793,35.818-38.055V389.131
		c0-4.893-2.668-7.568-7.565-7.568h-31.817v16.691h15.798v105.035c0,10.232-5.561,16.02-13.349,16.02
		c-5.342,0-10.242-1.332-14.25-3.557L1163.754,533.109z M1204.797,368.656c8.899,0,16.465-7.34,16.465-16.91
		c0-8.898-7.565-16.467-16.465-16.467c-9.571,0-17.141,7.568-17.141,16.467C1187.656,361.316,1195.226,368.656,1204.797,368.656z"/>
	<path fill="#FFC700" d="M1323.664,379.34c-22.697,0-35.384,12.016-41.837,27.371h-0.663c0.441-2.67,0.663-6.896,0.663-10.686
		v-6.895c0-4.893-2.663-7.568-7.558-7.568h-30.268v17.58h16.467v78.336h-16.467v16.684h58.206v-16.684h-18.154v-33.604
		c0-25.15,12.239-43.842,31.154-43.842c17.356,0,26.037,12.465,26.037,31.156v62.973h39.832v-16.684h-16.247v-50.295
		C1364.83,398.029,1349.035,379.34,1323.664,379.34z"/>
	<path fill="#FFC700" d="M1476.465,405.152l3.342-24.252c-2.668-0.895-5.561-1.561-9.127-1.561
		c-21.58,0-33.151,13.797-37.605,30.488h-0.668c0.219-3.342,0.668-7.791,0.668-11.574v-9.123c0-4.893-2.887-7.568-7.571-7.568
		h-30.472v18.252h16.458v77.664h-16.458v16.684h58.075v-16.684h-18.024v-31.381c0-23.586,9.563-42.945,29.82-42.945
		C1469.346,403.152,1472.688,404.041,1476.465,405.152z"/>
	<g>
		<path fill="#FFC700" d="M1261.113,520.963c-12.562,0-20.5,5.367-20.5,14.812c0,21.58,32.306,13.961,32.306,26.303
			c0,4.398-4.284,6.549-11.161,6.549c-4.94,0-8.8-1.076-11.809-3.113v-6.977h-9.77v11.484c5.154,5.148,12.453,7.299,21.47,7.299
			c12.884,0,22.437-5.158,22.437-15.242c0-20.615-32.417-14.17-32.417-26.303c0-4.08,3.862-6.008,9.874-6.008
			c4.722,0,8.373,1.285,10.736,2.68v6.768h9.768V526.33C1277.432,523.002,1271.205,520.963,1261.113,520.963z"/>
		<path fill="#FFC700" d="M1321.438,567.871c-5.266,0-9.772-1.502-12.989-5.15v-12.559c0-12.668,6.004-19.646,14.703-19.646
			c9.024,0,14.279,7.299,14.279,18.467C1337.431,560.678,1331.737,567.871,1321.438,567.871z M1326.694,521.068
			c-10.522-0.105-16.419,4.725-19.425,11.811h-0.325c0.325-1.609,0.212-3.111,0.325-4.832l0.101-2.361
			c0.108-2.361-1.393-3.648-3.646-3.648h-14.599v8.695h7.836v61.293h-7.73v7.947h27.485v-7.947h-8.702v-20.184
			c3.542,3.551,9.127,5.588,14.387,5.588c16.102,0,26.513-11.164,26.513-28.447C1348.914,532.238,1340.012,521.068,1326.694,521.068
			z"/>
		<path fill="#FFC700" d="M1367.591,544.15c1.602-8.479,7.08-14.174,14.704-14.174c9.119,0,12.881,7.301,13.312,14.174H1367.591z
			 M1381.867,521.068c-15.57,0-26.087,12.027-26.087,28.125c0,16.432,11.161,28.236,27.904,28.236
			c10.736,0,19.646-4.83,22.547-12.561l-8.371-4.4c-2.254,4.4-7.519,7.619-14.176,7.619c-9.875,0-15.562-6.979-16.418-16.314h39.071
			C1406.979,532.984,1399.255,520.963,1381.867,521.068z"/>
		<path fill="#FFC700" d="M1412.989,549.193c0,17.176,10.517,28.236,27.585,28.236c11.698,0,19.964-5.154,22.864-13.207l-9.13-3.865
			c-2.25,4.4-7.508,7.73-13.734,7.73c-10.63,0-15.993-7.83-15.993-18.895c0-10.516,5.151-18.893,15.782-18.893
			c5.038,0,9.119,1.938,11.053,4.297v6.656h10.301v-12.133c-4.724-5.262-11.907-8.158-21.256-8.158
			C1422.751,520.963,1412.989,534.166,1412.989,549.193z"/>
		<path fill="#FFC700" d="M1490.907,520.963c-12.556,0-20.497,5.367-20.497,14.812c0,21.58,32.309,13.961,32.309,26.303
			c0,4.398-4.29,6.549-11.158,6.549c-4.943,0-8.803-1.076-11.809-3.113v-6.977h-9.772v11.484c5.154,5.148,12.451,7.299,21.464,7.299
			c12.882,0,22.442-5.158,22.442-15.242c0-20.615-32.42-14.17-32.42-26.303c0-4.08,3.859-6.008,9.875-6.008
			c4.721,0,8.372,1.285,10.736,2.68v6.768h9.769V526.33C1507.229,523.002,1501.004,520.963,1490.907,520.963z"/>
	</g>
	<path fill="#FFC700" d="M1496.941,496.389c8.905,0,16.474-7.338,16.474-16.91c0-8.9-7.568-16.465-16.474-16.465
		c-9.568,0-17.135,7.564-17.135,16.465C1479.807,489.051,1487.373,496.389,1496.941,496.389z"/>
</g>
<rect x="90.55" y="79.402" fill="none" stroke="#001A71" stroke-miterlimit="10" width="733.846" height="1005.102"/>
<rect x="857.041" y="744.996" fill="#FFC700" width="733.846" height="339.508"/>
<text transform="matrix(1 0 0 1 165.1025 832.9023)" fill="#001A71" font-family="'Archia-Regular'" font-size="41.5351"> Eyewear for Little Big Kids</text>
<g>
	<path fill="#FFC700" d="M694.224,494.498c0,131.07-106.247,237.322-237.313,237.322c-131.073,0-237.323-106.252-237.323-237.322
		c0-131.068,106.25-237.32,237.323-237.32C587.977,257.178,694.224,363.43,694.224,494.498z"/>
	<g>
		<path fill="#FFFFFF" d="M289.611,555.697c3.831,2.549,10.419,4.889,18.717,4.889c21.48,0,34.242-13.186,34.242-36.373V418.082
			c0-4.678-2.553-7.232-7.233-7.232h-30.414v15.951h15.103v100.395c0,9.779-5.315,15.312-12.762,15.312
			c-5.106,0-9.786-1.275-13.614-3.402L289.611,555.697z M328.84,398.512c8.508,0,15.741-7.016,15.741-16.162
			c0-8.506-7.233-15.738-15.741-15.738c-9.147,0-16.377,7.232-16.377,15.738C312.463,391.496,319.692,398.512,328.84,398.512z"/>
		<path fill="#FFFFFF" d="M442.457,408.725c-21.696,0-33.822,11.484-39.99,26.16h-0.633c0.423-2.553,0.633-6.59,0.633-10.213v-6.59
			c0-4.678-2.547-7.232-7.224-7.232h-28.93v16.803h15.738v74.871h-15.738v15.947h55.632v-15.947h-17.349v-32.119
			c0-24.035,11.7-41.902,29.775-41.902c16.59,0,24.888,11.914,24.888,29.779v60.189h38.07v-15.947h-15.528v-48.068
			C481.802,426.586,466.703,408.725,442.457,408.725z"/>
		<path fill="#FFFFFF" d="M588.502,433.395l3.195-23.178c-2.546-0.855-5.312-1.492-8.725-1.492
			c-20.624,0-31.688,13.188-35.942,29.139h-0.636c0.206-3.195,0.636-7.445,0.636-11.062v-8.719c0-4.678-2.76-7.232-7.233-7.232
			h-29.126v17.445h15.729v74.229h-15.729v15.947h55.506v-15.947h-17.229v-29.992c0-22.545,9.145-41.049,28.5-41.049
			C581.701,431.482,584.894,432.332,588.502,433.395z"/>
		<g>
			<path fill="#FFFFFF" d="M382.671,544.088c-12.007,0-19.6,5.131-19.6,14.158c0,20.625,30.881,13.344,30.881,25.139
				c0,4.205-4.098,6.26-10.669,6.26c-4.72,0-8.408-1.027-11.284-2.975v-6.668h-9.337v10.975c4.923,4.922,11.9,6.977,20.521,6.977
				c12.31,0,21.443-4.93,21.443-14.568c0-19.703-30.983-13.543-30.983-25.139c0-3.902,3.688-5.742,9.44-5.742
				c4.507,0,7.998,1.229,10.255,2.561v6.469h9.337v-12.314C398.269,546.035,392.314,544.088,382.671,544.088z"/>
			<path fill="#FFFFFF" d="M440.326,588.922c-5.029,0-9.336-1.436-12.412-4.922v-12.004c0-12.107,5.738-18.777,14.05-18.777
				c8.625,0,13.651,6.977,13.651,17.648C455.615,582.047,450.173,588.922,440.326,588.922z M445.353,544.189
				c-10.056-0.102-15.697,4.516-18.566,11.287h-0.31c0.31-1.539,0.202-2.973,0.31-4.619l0.096-2.256
				c0.104-2.258-1.331-3.488-3.488-3.488h-13.95v8.312h7.489v58.584h-7.39v7.594h26.27v-7.594h-8.314v-19.293
				c3.385,3.393,8.725,5.344,13.754,5.344c15.385,0,25.341-10.672,25.341-27.193C466.593,554.863,458.078,544.189,445.353,544.189z"
				/>
			<path fill="#FFFFFF" d="M484.438,566.252c1.534-8.105,6.771-13.549,14.057-13.549c8.718,0,12.31,6.979,12.722,13.549H484.438z
				 M498.086,544.189c-14.883,0-24.936,11.492-24.936,26.881c0,15.705,10.672,26.99,26.673,26.99
				c10.266,0,18.777-4.617,21.55-12.008l-8.002-4.207c-2.154,4.207-7.184,7.283-13.548,7.283c-9.44,0-14.876-6.668-15.694-15.596
				h37.344C522.089,555.578,514.706,544.088,498.086,544.189z"/>
			<path fill="#FFFFFF" d="M527.834,571.07c0,16.416,10.053,26.99,26.366,26.99c11.178,0,19.076-4.928,21.853-12.627l-8.725-3.693
				c-2.153,4.207-7.18,7.389-13.128,7.389c-10.162,0-15.292-7.482-15.292-18.059c0-10.051,4.927-18.057,15.089-18.057
				c4.816,0,8.718,1.85,10.565,4.107v6.361h9.843v-11.596c-4.514-5.029-11.381-7.799-20.315-7.799
				C537.161,544.088,527.834,556.707,527.834,571.07z"/>
			<path fill="#FFFFFF" d="M602.31,544.088c-12.003,0-19.593,5.131-19.593,14.158c0,20.625,30.88,13.344,30.88,25.139
				c0,4.205-4.104,6.26-10.665,6.26c-4.724,0-8.415-1.027-11.291-2.975v-6.668h-9.337v10.975c4.927,4.922,11.903,6.977,20.519,6.977
				c12.312,0,21.449-4.93,21.449-14.568c0-19.703-30.989-13.543-30.989-25.139c0-3.902,3.691-5.742,9.437-5.742
				c4.514,0,8.002,1.229,10.263,2.561v6.469h9.337v-12.314C617.907,546.035,611.956,544.088,602.31,544.088z"/>
		</g>
		<path fill="#FFFFFF" d="M608.071,520.598c8.515,0,15.748-7.014,15.748-16.16c0-8.508-7.233-15.738-15.748-15.738
			c-9.141,0-16.374,7.23-16.374,15.738C591.697,513.584,598.931,520.598,608.071,520.598z"/>
	</g>
</g>
<g>
	<g>
		<text transform="matrix(1 0 0 1 1041.0898 1008.4248)" fill="#293887" font-family="'Archia-Regular'" font-size="26.0302"> Eyewear for Little Big Kids</text>
	</g>
	<g>
		<g>
			<path fill="#001A71" d="M970.323,942.588c2.038,1.355,5.545,2.602,9.964,2.602c11.436,0,18.226-7.02,18.226-19.361v-56.496
				c0-2.488-1.358-3.852-3.851-3.852h-16.189v8.492h8.039v53.443c0,5.207-2.831,8.15-6.793,8.15c-2.716,0-5.21-0.678-7.248-1.811
				L970.323,942.588z M991.204,858.914c4.528,0,8.379-3.734,8.379-8.602c0-4.529-3.851-8.379-8.379-8.379
				c-4.87,0-8.719,3.85-8.719,8.379C982.485,855.18,986.334,858.914,991.204,858.914z"/>
			<path fill="#001A71" d="M1051.686,864.352c-11.551,0-18.004,6.113-21.289,13.926h-0.337c0.227-1.359,0.337-3.508,0.337-5.438
				v-3.508c0-2.488-1.356-3.852-3.846-3.852h-15.398v8.945h8.377v39.855h-8.377v8.49h29.616v-8.49h-9.239v-17.096
				c0-12.795,6.229-22.307,15.852-22.307c8.832,0,13.247,6.342,13.247,15.852v32.041h20.267v-8.49h-8.264v-25.588
				C1072.631,873.859,1064.594,864.352,1051.686,864.352z"/>
			<path fill="#001A71" d="M1129.43,877.484l1.699-12.338c-1.357-0.457-2.829-0.795-4.644-0.795
				c-10.979,0-16.868,7.02-19.134,15.512h-0.34c0.111-1.701,0.34-3.965,0.34-5.891v-4.641c0-2.488-1.471-3.852-3.852-3.852h-15.504
				v9.289h8.374v39.512h-8.374v8.49h29.549v-8.49h-9.172v-15.965c0-12,4.865-21.85,15.172-21.85
				C1125.806,876.467,1127.507,876.918,1129.43,877.484z"/>
			<path fill="#001A71" d="M1139.846,923.904c4.532,0,8.383-3.734,8.383-8.604c0-4.527-3.851-8.379-8.383-8.379
				c-4.869,0-8.717,3.852-8.717,8.379C1131.129,920.17,1134.977,923.904,1139.846,923.904z"/>
		</g>
		<g>
			<path fill="#001A71" d="M1205.488,864.334c-13.521,0-22.069,5.777-22.069,15.945c0,23.23,34.78,15.027,34.78,28.316
				c0,4.734-4.617,7.049-12.018,7.049c-5.316,0-9.473-1.16-12.711-3.354v-7.51h-10.515v12.363c5.545,5.541,13.403,7.855,23.11,7.855
				c13.868,0,24.153-5.551,24.153-16.404c0-22.193-34.896-15.258-34.896-28.316c0-4.393,4.155-6.471,10.63-6.471
				c5.082,0,9.01,1.387,11.555,2.889v7.283h10.517v-13.869C1223.058,866.529,1216.354,864.334,1205.488,864.334z"/>
			<path fill="#001A71" d="M1270.43,914.832c-5.668,0-10.52-1.619-13.984-5.547v-13.518c0-13.639,6.465-21.15,15.832-21.15
				c9.709,0,15.37,7.857,15.37,19.877C1287.647,907.086,1281.518,914.832,1270.43,914.832z M1276.088,864.447
				c-11.326-0.113-17.676,5.086-20.91,12.713h-0.347c0.347-1.73,0.224-3.352,0.347-5.201l0.111-2.541
				c0.11-2.543-1.504-3.93-3.931-3.93h-15.712v9.361h8.434v65.984h-8.32v8.555h29.585v-8.555h-9.366v-21.73
				c3.814,3.82,9.824,6.016,15.49,6.016c17.33,0,28.541-12.018,28.541-30.625C1300.01,876.471,1290.424,864.447,1276.088,864.447z"
				/>
			<path fill="#001A71" d="M1320.112,889.295c1.728-9.129,7.624-15.26,15.835-15.26c9.812,0,13.863,7.861,14.326,15.26H1320.112z
				 M1335.479,864.447c-16.758,0-28.081,12.945-28.081,30.277c0,17.688,12.018,30.395,30.043,30.395
				c11.557,0,21.148-5.197,24.271-13.52l-9.011-4.74c-2.429,4.74-8.097,8.203-15.261,8.203c-10.63,0-16.756-7.512-17.679-17.562
				h42.063C1362.518,877.275,1354.201,864.334,1335.479,864.447z"/>
			<path fill="#001A71" d="M1368.985,894.725c0,18.488,11.323,30.395,29.696,30.395c12.594,0,21.49-5.547,24.611-14.219
				l-9.825-4.158c-2.425,4.736-8.083,8.32-14.786,8.32c-11.442,0-17.216-8.43-17.216-20.338c0-11.318,5.545-20.34,16.991-20.34
				c5.422,0,9.814,2.086,11.895,4.625v7.166h11.09v-13.061c-5.084-5.662-12.817-8.781-22.883-8.781
				C1379.496,864.334,1368.985,878.545,1368.985,894.725z"/>
			<path fill="#001A71" d="M1452.87,864.334c-13.521,0-22.066,5.777-22.066,15.945c0,23.23,34.778,15.027,34.778,28.316
				c0,4.734-4.617,7.049-12.014,7.049c-5.318,0-9.473-1.16-12.711-3.354v-7.51h-10.521v12.363c5.551,5.541,13.408,7.855,23.11,7.855
				c13.866,0,24.158-5.551,24.158-16.404c0-22.193-34.901-15.258-34.901-28.316c0-4.393,4.154-6.471,10.63-6.471
				c5.082,0,9.013,1.387,11.56,2.889v7.283h10.514v-13.869C1470.438,866.529,1463.736,864.334,1452.87,864.334z"/>
		</g>
	</g>
</g>
</svg>
